<svg width="248" height="240" viewBox="0 0 248 240" fill="none" xmlns="http://www.w3.org/2000/svg">
  <g clip-path="url(#clip0_0_1)">
    <mask id="mask0_511_71" style="mask-type:luminance" maskUnits="userSpaceOnUse" x="0" y="0" width="240" height="241">
      <path
        d="M240 120.5C240 54.2258 186.274 0.5 120 0.5C53.7258 0.5 0 54.2258 0 120.5C0 186.774 53.7258 240.5 120 240.5C186.274 240.5 240 186.774 240 120.5Z"
        fill="white" />
    </mask>
    <g mask="url(#mask0_511_71)">
      <path fill-rule="evenodd" clip-rule="evenodd"
        d="M161.392 69C162.868 77.0042 163.2 88.3187 160.443 104.888C158.129 118.796 165.844 126.656 176.597 129.376C158.004 138.596 139.51 149.222 139.124 167.549C138.624 191.337 127.117 173.75 121.597 153.846C126.547 125.536 139.802 82.6261 161.392 69Z"
        fill="#AED8FB" />
      <path
        d="M43.7636 186.939C40.9968 209.385 32.9164 220.8 28.3638 235.011C57.3667 276.711 140.109 277.57 180.805 275.7C186.672 257.386 192.051 234.609 194.514 208.049C198.974 159.945 156.707 136.676 118.919 132.462C81.1307 128.248 47.9473 152.999 43.7636 186.939Z"
        fill="#AED8FB" />
      <path d="M76.4229 174C80.9995 178 86.2285 184.266 95.4179 180.185" stroke="white" stroke-width="6"
        stroke-linecap="round" />
      <path d="M153.977 176.289C149.163 180.001 144.838 185.262 135.916 180.624" stroke="white" stroke-width="6"
        stroke-linecap="round" />
      <path
        d="M63.1334 33.8222C123.216 17.4036 118.243 98.5938 106.061 142.025C91.7577 158.353 62.7793 183.774 78.7728 148.561C98.7646 104.544 -11.9698 54.3453 63.1334 33.8222Z"
        fill="#AED8FB" />
      <path
        d="M141.905 204.694C144.954 204.897 147.644 201.766 147.914 197.702C148.184 193.638 145.933 190.179 142.885 189.976C139.836 189.774 137.146 192.904 136.876 196.968C136.606 201.032 138.857 204.491 141.905 204.694Z"
        fill="white" />
      <path
        d="M89.2969 202.913C92.35 202.81 94.7137 199.426 94.5764 195.356C94.4391 191.285 91.8527 188.068 88.7996 188.171C85.7465 188.274 83.3828 191.658 83.5201 195.729C83.6574 199.799 86.2438 203.016 89.2969 202.913Z"
        fill="white" />
      <path
        d="M115.907 216.721C112.837 216.721 109.946 215.83 107.825 214.485C105.699 213.137 104.374 211.352 104.374 209.573C104.374 207.794 105.586 206.16 107.593 204.965C109.598 203.772 112.375 203.029 115.45 203.029C118.525 203.029 121.302 203.772 123.307 204.965C125.314 206.16 126.526 207.794 126.526 209.573C126.526 211.362 125.419 213.146 123.527 214.489C121.637 215.83 118.977 216.721 115.907 216.721Z"
        fill="white" stroke="white" stroke-width="0.251939" />
      <path
        d="M73.4842 55.3088C105.533 44.9725 105.539 104.035 102.48 132.432L94.0236 134.193C93.7249 81.0844 33.3418 68.2555 73.4842 55.3088Z"
        fill="white" />
      <path
        d="M168.64 101.896C173.199 80.4274 170.186 70.5055 167.597 64.8835C199.69 58.6453 222.847 86.8289 216.566 105.884C209.504 127.308 162.941 128.732 168.64 101.896Z"
        fill="#AED8FB" />
    </g>
    <path fill-rule="evenodd" clip-rule="evenodd"
      d="M225 180.5C237.703 180.5 248 170.203 248 157.5C248 144.797 237.703 134.5 225 134.5C212.297 134.5 202 144.797 202 157.5C202 160.819 202.703 163.974 203.968 166.823L200 173.696H208.67C212.837 177.898 218.615 180.5 225 180.5Z"
      fill="#AED8FB" />
    <path
      d="M225.623 146.917C227.888 146.917 229.706 147.538 231.078 148.779C232.471 149.998 233.168 151.686 233.168 153.842C233.168 155.976 232.482 157.609 231.11 158.741C229.739 159.852 227.92 160.407 225.656 160.407L225.525 162.922H221.508L221.344 157.369H222.814C224.708 157.369 226.167 157.119 227.191 156.618C228.214 156.117 228.726 155.203 228.726 153.874C228.726 152.916 228.443 152.154 227.877 151.588C227.332 151.022 226.581 150.739 225.623 150.739C224.621 150.739 223.837 151.011 223.271 151.555C222.727 152.1 222.455 152.851 222.455 153.809H218.143C218.121 152.481 218.405 151.294 218.992 150.249C219.58 149.204 220.441 148.387 221.573 147.799C222.727 147.211 224.077 146.917 225.623 146.917ZM223.5 170.729C222.672 170.729 221.987 170.478 221.442 169.977C220.92 169.455 220.658 168.812 220.658 168.05C220.658 167.288 220.92 166.657 221.442 166.156C221.987 165.633 222.672 165.372 223.5 165.372C224.306 165.372 224.97 165.633 225.492 166.156C226.015 166.657 226.276 167.288 226.276 168.05C226.276 168.812 226.015 169.455 225.492 169.977C224.97 170.478 224.306 170.729 223.5 170.729Z"
      fill="white" />
  </g>
  <defs>
    <clipPath id="clip0_0_1">
      <rect width="248" height="240" fill="white" />
    </clipPath>
  </defs>
</svg>