<svg width="240" height="240" viewBox="0 0 240 240" fill="none" xmlns="http://www.w3.org/2000/svg">
  <g clip-path="url(#clip0_80_517)">
    <mask id="mask0_511_48" style="mask-type:luminance" maskUnits="userSpaceOnUse" x="0" y="0" width="240" height="240">
      <path
        d="M240 120.5C240 54.2258 186.274 0.5 120 0.5C53.7258 0.5 0 54.2258 0 120.5C0 186.774 53.7258 240.5 120 240.5C186.274 240.5 240 186.774 240 120.5Z"
        fill="white" />
    </mask>
    <g mask="url(#mask0_511_48)">
      <path
        d="M43.7636 186.939C40.9968 209.385 32.9164 220.8 28.3638 235.011C57.3667 276.711 140.109 277.57 180.805 275.7C186.672 257.386 192.051 234.609 194.514 208.049C198.974 159.945 156.707 136.676 118.919 132.462C81.1307 128.248 47.9473 152.999 43.7636 186.939Z"
        fill="#AED8FB" />
      <path
        d="M63.1334 33.8222C123.216 17.4036 118.243 98.5938 106.061 142.025C91.7577 158.353 62.7793 183.774 78.7728 148.561C98.7646 104.544 -11.9698 54.3453 63.1334 33.8222Z"
        fill="#AED8FB" />
      <path
        d="M115.906 216.721C112.836 216.721 109.945 215.83 107.824 214.485C105.698 213.137 104.373 211.352 104.373 209.573C104.373 207.794 105.585 206.16 107.592 204.965C109.597 203.772 112.374 203.029 115.449 203.029C118.524 203.029 121.301 203.772 123.306 204.965C125.313 206.16 126.525 207.794 126.525 209.573C126.525 211.362 125.418 213.146 123.526 214.489C121.636 215.83 118.976 216.721 115.906 216.721Z"
        fill="white" stroke="white" stroke-width="0.251939" />
      <path
        d="M73.4842 55.3088C105.533 44.9725 105.539 104.035 102.48 132.432L94.0236 134.193C93.7249 81.0844 33.3418 68.2555 73.4842 55.3088Z"
        fill="white" />
      <mask id="mask1_511_48" style="mask-type:luminance" maskUnits="userSpaceOnUse" x="75" y="180" width="23"
        height="24">
        <path d="M98 180.5H75V203.5H98V180.5Z" fill="white" />
      </mask>
      <g mask="url(#mask1_511_48)">
        <path
          d="M77.1803 203.355C76.6164 203.388 76.0618 203.201 75.6335 202.833C74.7888 201.983 74.7888 200.61 75.6335 199.761L94.1296 181.265C95.0082 180.443 96.3868 180.488 97.2089 181.367C97.9523 182.161 97.9956 183.382 97.3103 184.228L78.7052 202.833C78.2825 203.195 77.7368 203.383 77.1803 203.355Z"
          fill="white" />
        <path
          d="M95.6544 203.355C95.0829 203.353 94.5352 203.126 94.1294 202.724L75.6332 184.227C74.8507 183.314 74.9571 181.938 75.8709 181.156C76.6865 180.457 77.8895 180.457 78.705 181.156L97.3101 199.652C98.1884 200.474 98.2338 201.853 97.4115 202.731C97.3788 202.766 97.345 202.8 97.3101 202.833C96.8545 203.229 96.255 203.418 95.6544 203.355Z"
          fill="white" />
      </g>
      <mask id="mask2_511_48" style="mask-type:luminance" maskUnits="userSpaceOnUse" x="133" y="180" width="23"
        height="24">
        <path d="M156 180.5H133V203.5H156V180.5Z" fill="white" />
      </mask>
      <g mask="url(#mask2_511_48)">
        <path
          d="M135.18 203.355C134.616 203.388 134.062 203.201 133.634 202.833C132.789 201.983 132.789 200.61 133.634 199.761L152.13 181.265C153.008 180.443 154.387 180.488 155.209 181.367C155.952 182.161 155.996 183.382 155.31 184.228L136.705 202.833C136.282 203.195 135.737 203.383 135.18 203.355Z"
          fill="white" />
        <path
          d="M153.654 203.355C153.083 203.353 152.535 203.126 152.129 202.724L133.633 184.227C132.851 183.314 132.957 181.938 133.871 181.156C134.687 180.457 135.889 180.457 136.705 181.156L155.31 199.652C156.188 200.474 156.234 201.853 155.412 202.731C155.379 202.766 155.345 202.8 155.31 202.833C154.855 203.229 154.255 203.418 153.654 203.355Z"
          fill="white" />
      </g>
    </g>
    <path fill-rule="evenodd" clip-rule="evenodd"
      d="M161.392 69C162.868 77.0042 163.2 88.3187 160.443 104.888C158.129 118.796 165.844 126.656 176.597 129.376C158.004 138.596 139.51 149.222 139.124 167.549C138.624 191.337 127.117 173.75 121.597 153.846C126.547 125.536 139.802 82.6261 161.392 69Z"
      fill="#AED8FB" />
    <path
      d="M168.64 101.896C173.199 80.4274 170.186 70.5055 167.597 64.8835C199.69 58.6453 222.847 86.8289 216.566 105.884C209.504 127.308 162.941 128.732 168.64 101.896Z"
      fill="#AED8FB" />
  </g>
  <defs>
    <clipPath id="clip0_80_517">
      <rect width="240" height="240" fill="white" transform="translate(0 0.5)" />
    </clipPath>
  </defs>
</svg>