<svg width="207" height="49" viewBox="0 0 207 49" fill="none" xmlns="http://www.w3.org/2000/svg">
  <path
    d="M30.011 44.8221C36.9385 45.1133 43.4532 43.342 48.3916 40.0504C53.3266 36.761 56.9202 31.7531 57.1749 25.6932C57.4297 19.6333 54.269 14.3415 49.6275 10.6496C44.9827 6.95509 38.6397 4.64335 31.7121 4.35215C24.7846 4.06095 18.2699 5.83221 13.3315 9.12387C8.3965 12.4132 4.80288 17.4212 4.54815 23.481C4.29342 29.5409 7.45409 34.8328 12.0956 38.5247C16.7403 42.2191 23.0834 44.5309 30.011 44.8221Z"
    fill="white" stroke="#AED8FB" stroke-width="7.77418" />
  <path
    d="M175.267 44.5291C182.194 44.8203 188.709 43.0491 193.647 39.7574C198.582 36.468 202.176 31.4601 202.431 25.4002C202.686 19.3404 199.525 14.0485 194.883 10.3566C190.239 6.66212 183.896 4.35038 176.968 4.05918C170.04 3.76798 163.526 5.53924 158.587 8.8309C153.652 12.1202 150.059 17.1282 149.804 23.1881C149.549 29.2479 152.71 34.5398 157.351 38.2317C161.996 41.9262 168.339 44.2379 175.267 44.5291Z"
    fill="white" stroke="#AED8FB" stroke-width="7.77418" />
</svg>