<svg width="87" height="87" viewBox="0 0 87 87" fill="none" xmlns="http://www.w3.org/2000/svg">
  <g clip-path="url(#clip0_509_191)">
    <path
      d="M15.7215 66.8413C14.7173 74.8829 11.8154 78.9684 10.176 84.0583C20.5451 99.0173 50.194 99.3719 64.7778 98.725C66.8905 92.1657 68.8309 84.007 69.7284 74.4911C71.3538 57.2565 56.2214 48.8942 42.683 47.363C29.1446 45.8317 17.2399 54.6816 15.7215 66.8413Z"
      fill="#D7ECFE" />
    <path
      d="M22.7491 11.9854C44.288 6.13617 42.46 35.2265 38.0703 50.7824C32.9356 56.6252 22.5373 65.7178 28.2883 53.1088C35.4769 37.3476 -4.17444 19.297 22.7491 11.9854Z"
      fill="#D7ECFE" />
    <ellipse cx="51.0586" cy="70.6225" rx="1.98204" ry="2.64272" transform="rotate(3.89676 51.0586 70.6225)"
      fill="white" />
    <ellipse cx="31.9436" cy="69.9496" rx="1.98204" ry="2.64272" transform="rotate(-1.84135 31.9436 69.9496)"
      fill="white" />
    <path
      d="M41.556 77.554C40.4558 77.5523 39.4202 77.2313 38.6611 76.7482C37.9 76.264 37.4261 75.6236 37.4271 74.9862C37.4281 74.3484 37.8635 73.7639 38.5834 73.3367C39.3024 72.9102 40.2981 72.6458 41.3998 72.6475C42.5016 72.6493 43.4965 72.9168 44.2141 73.3457C44.9327 73.775 45.3662 74.361 45.3651 74.9987C45.3641 75.6395 44.9662 76.2783 44.2876 76.7585C43.6097 77.2381 42.656 77.5558 41.556 77.554Z"
      fill="white" stroke="white" stroke-width="0.090278" />
    <path fill-rule="evenodd" clip-rule="evenodd"
      d="M57.2523 25.7706C57.7625 28.5217 57.8771 32.4106 56.9244 38.1056C56.1246 42.886 58.7909 45.5875 62.5069 46.5223C56.0816 49.6914 49.6906 53.3435 49.5572 59.6429C49.3841 67.819 45.4078 61.7742 43.5002 54.933C45.2107 45.2026 49.7914 30.454 57.2523 25.7706Z"
      fill="#D7ECFE" />
    <path
      d="M59.9505 37.1371C61.4971 29.6843 60.4752 26.2399 59.5969 24.2882C70.4836 22.1226 78.3389 31.9066 76.2082 38.5217C73.8127 45.9588 58.0173 46.4532 59.9505 37.1371Z"
      fill="#D7ECFE" />
    <path
      d="M26.446 19.6907C37.936 16.005 37.9049 37.1691 36.7924 47.3429L33.7612 47.9692C33.6843 28.9384 12.0543 24.3072 26.446 19.6907Z"
      fill="white" />
  </g>
  <defs>
    <clipPath id="clip0_509_191">
      <rect x="0.145264" y="0.00923157" width="86" height="86" rx="43" transform="rotate(0.0905676 0.145264 0.00923157)"
        fill="white" />
    </clipPath>
  </defs>
</svg>