<svg width="181" height="72" viewBox="0 0 181 72" fill="none" xmlns="http://www.w3.org/2000/svg">
  <g clip-path="url(#clip0_1637_1409)">
    <path
      d="M30.0207 0.520508L0 44.2357L30.0207 71.072L60.0413 44.2217L30.0207 0.520508ZM51.0223 39.6528L42.5711 34.1914L34.9993 14.9317L51.0223 39.6537V39.6528ZM37.614 32.7985H22.4264L30.0207 10.4254L37.6149 32.7985H37.614ZM25.0429 14.9317L17.4664 34.1942L9.01901 39.6612L25.042 14.9317H25.0429ZM8.34359 45.0571L18.3682 38.7931L27.2965 62.7181L8.34453 45.0571H8.34359ZM22.3908 37.3103H37.6467L30.0197 60.3158L22.3908 37.3103ZM41.6731 38.7921L51.6977 45.0459L32.742 62.719L41.674 38.7921H41.6731Z"
      fill="#FF3F00" />
    <path
      d="M82.7672 48.1956L81.8149 43.8391H75.042L74.0887 48.1956H67.7246L74.4292 24.3726H82.4267L89.165 48.1956H82.7672ZM76.2665 38.4282H80.5885L78.5126 29.0013H78.3424L76.2665 38.4282Z"
      fill="#FF3F00" />
    <path
      d="M112.015 48.1956H105.345L101.636 40.5387H98.8119V48.1956H92.4824V24.3726H102.284C107.832 24.3726 110.758 28.1164 110.758 32.3363C110.758 35.0932 109.601 37.6452 107.355 39.1429L112.017 48.1956H112.015ZM98.81 29.2399V35.706H101.499C103.676 35.706 105.004 34.3785 105.004 32.4392C105.004 30.5 103.643 29.2399 101.499 29.2399H98.81Z"
      fill="#FF3F00" />
    <path
      d="M115.704 48.1956V24.3726H122.034V35.705H122.237L128.567 24.3726H135.544L128.499 35.9772L135.679 48.1947H128.499L122.237 36.5217H122.033V48.1947H115.703L115.704 48.1956Z"
      fill="#FF3F00" />
    <path
      d="M138.966 48.1956V24.3726H155.335V29.7834H145.295V33.6975H154.415V38.5985H145.295V42.7848H155.777V48.1956H138.966Z"
      fill="#FF3F00" />
    <path
      d="M160.626 48.1956V24.3726H167.466L174.239 38.2233H174.409V24.3726H180.501V48.1956H173.661L166.888 34.0726H166.752V48.1956H160.626Z"
      fill="#FF3F00" />
  </g>
  <defs>
    <clipPath id="clip0_1637_1409">
      <rect width="180.5" height="70.5515" fill="currentcolor" transform="translate(0 0.520508)" />
    </clipPath>
  </defs>
</svg>