<?xml version="1.0" encoding="UTF-8"?>
<svg version="1.1" xmlns="http://www.w3.org/2000/svg" width="2000" height="524">
<path d="M0 0 C3.24015121 1.85029923 6.33227216 3.91582547 9.41162109 6.02050781 C11.59742715 7.50752677 13.8087197 8.94741416 16.03125 10.37890625 C19.36869054 12.52964064 22.6974415 14.69281363 26.01953125 16.8671875 C44.03002337 28.63574084 62.23367549 40.101937 80.51171875 51.44921875 C81.58099609 52.1148584 82.65027344 52.78049805 83.75195312 53.46630859 C91.31280302 58.17006828 98.89857904 62.83058066 106.51171875 67.44921875 C107.46240234 68.02897461 108.41308594 68.60873047 109.39257812 69.20605469 C134.93114988 84.6864416 162.61121286 94.03142629 192.76171875 86.82421875 C208.18803219 82.70146339 221.07794326 74.78246986 234.51171875 66.44921875 C235.71278551 65.71360771 236.91451898 64.97908311 238.1171875 64.24609375 C245.93599489 59.46739408 253.69686705 54.59450211 261.46337891 49.73144531 C265.48277165 47.21537252 269.5044308 44.70292235 273.52636719 42.19091797 C276.7753555 40.16128553 280.02266647 38.12909886 283.265625 36.08984375 C292.18633223 30.48691665 301.16648634 24.98678625 310.17993164 19.53417969 C315.83634335 16.10557121 321.44142049 12.60727725 327.0144043 9.04467773 C330.16618671 7.03109889 333.33313943 5.04524956 336.51171875 3.07421875 C337.58421875 2.40648437 338.65671875 1.73875 339.76171875 1.05078125 C345.53633766 -2.31227806 350.99453154 -2.67996235 357.51171875 -1.55078125 C363.920129 0.88812821 369.7020958 4.86699257 375.51171875 8.44921875 C377.64328126 9.73514719 379.7761719 11.01887584 381.91015625 12.30078125 C387.2891148 15.53869976 392.65021764 18.80511479 398.00531006 22.08232117 C403.91903234 25.70086471 409.84499393 29.29905257 415.77288818 32.89431763 C417.5157704 33.95167677 419.2582079 35.00976474 421.00048828 36.06811523 C426.88135945 39.64036467 432.76475486 43.20836359 438.65234375 46.76953125 C450.12063296 53.70881462 461.56762757 60.68088494 472.94921875 67.76171875 C473.94405273 68.37805176 474.93888672 68.99438477 475.96386719 69.62939453 C478.49649242 71.21173203 481.00721974 72.82288446 483.51171875 74.44921875 C484.92130859 75.33673828 484.92130859 75.33673828 486.359375 76.2421875 C492.47667779 82.51492085 494.25512279 89.96974946 494.15336609 98.46801758 C494.16612437 99.90357734 494.16612437 99.90357734 494.17914039 101.36813831 C494.20127474 104.54789293 494.18801364 107.72646226 494.17456055 110.90625 C494.18298012 113.19689771 494.19350806 115.48753849 494.20597839 117.77816772 C494.232982 123.98065193 494.22833748 130.18273316 494.21627784 136.38525009 C494.20913623 141.56923062 494.21765273 146.75313712 494.22618324 151.93711185 C494.24725946 164.86663429 494.23814643 177.79590872 494.21470693 190.72541535 C494.19645617 201.23992433 494.20736565 211.75408212 494.23901367 222.26855469 C494.27582662 234.49954634 494.29212781 246.73027392 494.2796014 258.96132565 C494.27312019 265.42823529 494.27508937 271.89484951 494.2989254 278.36172485 C494.32019813 284.44245156 494.31217145 290.52245658 494.28183174 296.60313797 C494.27551195 298.83072023 494.27934661 301.0583587 494.29424286 303.28590012 C494.42897631 325.21585991 494.42897631 325.21585991 487.51171875 332.44921875 C484.58984375 334.95703125 484.58984375 334.95703125 481.76171875 336.57421875 C480.818125 337.13367188 479.87453125 337.693125 478.90234375 338.26953125 C476.51171875 339.44921875 476.51171875 339.44921875 474.51171875 339.44921875 C474.18171875 340.10921875 473.85171875 340.76921875 473.51171875 341.44921875 C471.58820382 342.69232616 469.62271296 343.87108179 467.63671875 345.01171875 C466.56679688 345.63175781 465.496875 346.25179688 464.39453125 346.890625 C461.51171875 348.44921875 461.51171875 348.44921875 458.51171875 349.44921875 C458.18171875 350.10921875 457.85171875 350.76921875 457.51171875 351.44921875 C456.19402992 352.1462972 454.85687556 352.80674277 453.51171875 353.44921875 C451.78886095 354.51614349 450.07899151 355.60418153 448.37890625 356.70703125 C447.40824219 357.33222656 446.43757812 357.95742188 445.4375 358.6015625 C443.39457353 359.92253288 441.35291618 361.24546794 439.3125 362.5703125 C438.34441406 363.19292969 437.37632812 363.81554687 436.37890625 364.45703125 C435.05028564 365.31772217 435.05028564 365.31772217 433.69482422 366.19580078 C431.51171875 367.44921875 431.51171875 367.44921875 429.51171875 367.44921875 C429.18171875 368.10921875 428.85171875 368.76921875 428.51171875 369.44921875 C427.19656117 370.15106115 425.85903634 370.81128651 424.51171875 371.44921875 C422.90225682 372.41499948 421.30427719 373.40003806 419.71484375 374.3984375 C418.76722168 374.99229248 417.81959961 375.58614746 416.84326172 376.19799805 C415.82635254 376.83777588 414.80944336 377.47755371 413.76171875 378.13671875 C411.60291855 379.49097145 409.4440627 380.84513545 407.28515625 382.19921875 C406.17237305 382.89789063 405.05958984 383.5965625 403.91308594 384.31640625 C400.54602468 386.42912901 397.17385748 388.53361115 393.80078125 390.63671875 C392.72538086 391.30743408 391.64998047 391.97814941 390.54199219 392.66918945 C388.48046225 393.95469469 386.41862642 395.23970955 384.35644531 396.52416992 C378.60079847 400.11388476 378.60079847 400.11388476 372.95703125 403.875 C370.51171875 405.44921875 370.51171875 405.44921875 368.51171875 405.44921875 C368.18171875 406.10921875 367.85171875 406.76921875 367.51171875 407.44921875 C366.19628847 408.15054992 364.85874053 408.81066213 363.51171875 409.44921875 C361.86704137 410.43837496 360.23393136 411.4468839 358.609375 412.46875 C357.64773438 413.07203125 356.68609375 413.6753125 355.6953125 414.296875 C354.66535156 414.94527344 353.63539063 415.59367187 352.57421875 416.26171875 C350.38826176 417.63319658 348.20205956 419.00428365 346.015625 420.375 C344.91879395 421.06287598 343.82196289 421.75075195 342.69189453 422.45947266 C338.14214198 425.30612422 333.57804422 428.12925673 329.01171875 430.94921875 C321.18798848 435.78543194 313.37660356 440.64113914 305.57421875 445.51171875 C304.56101562 446.14335937 303.5478125 446.775 302.50390625 447.42578125 C296.66843147 451.06826953 296.66843147 451.06826953 290.9453125 454.8828125 C288.51171875 456.44921875 288.51171875 456.44921875 286.51171875 456.44921875 C286.18171875 457.10921875 285.85171875 457.76921875 285.51171875 458.44921875 C283.25974601 459.82137808 281.00977434 461.12113805 278.69921875 462.38671875 C273.80209555 465.06898174 273.80209555 465.06898174 269.1875 468.203125 C267.51171875 469.44921875 267.51171875 469.44921875 265.51171875 469.44921875 C265.18171875 470.10921875 264.85171875 470.76921875 264.51171875 471.44921875 C263.19577993 472.14959524 261.85768725 472.80844498 260.51171875 473.44921875 C258.592967 474.59425211 256.6852606 475.75787561 254.78515625 476.93359375 C253.67011719 477.62195313 252.55507813 478.3103125 251.40625 479.01953125 C250.23301066 479.74599322 249.05983389 480.47255623 247.88671875 481.19921875 C245.60340932 482.61156182 243.3193549 484.02268804 241.03515625 485.43359375 C239.93526367 486.11357422 238.83537109 486.79355469 237.70214844 487.49414062 C233.96765741 489.78261661 230.20383677 492.01824765 226.42431641 494.23144531 C224.38128866 495.43518978 224.38128866 495.43518978 222.51171875 497.44921875 C221.50109375 497.77921875 220.49046875 498.10921875 219.44921875 498.44921875 C216.39021069 499.10674431 216.39021069 499.10674431 215.51171875 501.44921875 C211.01171875 504.44921875 211.01171875 504.44921875 208.51171875 504.44921875 C208.18171875 505.10921875 207.85171875 505.76921875 207.51171875 506.44921875 C205.42713553 507.74279036 203.34562287 508.95431764 201.19921875 510.13671875 C199.92543263 510.84963789 198.65200164 511.56319187 197.37890625 512.27734375 C196.73405273 512.63763672 196.08919922 512.99792969 195.42480469 513.36914062 C191.55963062 515.55131649 187.75343962 517.8347188 183.9375 520.1015625 C177.19488812 523.84745799 167.22731198 523.42881906 159.78515625 521.8828125 C157.21123088 520.96217627 155.04578209 520.0075577 153.13671875 518.01171875 C151.07059256 516.02505895 148.90239352 515.00058195 146.32421875 513.76171875 C145.42316406 513.32472656 144.52210938 512.88773438 143.59375 512.4375 C142.90667969 512.11136719 142.21960938 511.78523437 141.51171875 511.44921875 C141.51171875 510.78921875 141.51171875 510.12921875 141.51171875 509.44921875 C139.93390625 509.07796875 139.93390625 509.07796875 138.32421875 508.69921875 C134.67269196 507.67590781 132.42098476 505.88671189 129.51171875 503.44921875 C127.32957307 502.67088341 127.32957307 502.67088341 125.51171875 502.44921875 C125.51171875 501.78921875 125.51171875 501.12921875 125.51171875 500.44921875 C124.19171875 500.11921875 122.87171875 499.78921875 121.51171875 499.44921875 C121.51171875 498.78921875 121.51171875 498.12921875 121.51171875 497.44921875 C120.91359375 497.30484375 120.31546875 497.16046875 119.69921875 497.01171875 C117.95021471 496.56197485 116.22494852 496.02029534 114.51171875 495.44921875 C114.51171875 494.78921875 114.51171875 494.12921875 114.51171875 493.44921875 C112.53171875 492.78921875 110.55171875 492.12921875 108.51171875 491.44921875 C108.51171875 490.78921875 108.51171875 490.12921875 108.51171875 489.44921875 C106.86171875 489.11921875 105.21171875 488.78921875 103.51171875 488.44921875 C103.51171875 487.78921875 103.51171875 487.12921875 103.51171875 486.44921875 C102.85171875 486.40796875 102.19171875 486.36671875 101.51171875 486.32421875 C97.83493079 485.25182226 95.60724576 483.41096172 92.62109375 481.0703125 C88.32716672 477.77035006 83.85521058 474.91218299 78.82421875 472.88671875 C75.44926287 471.42211525 73.32504841 469.79366013 70.51171875 467.44921875 C69.02437733 466.38955609 67.52311756 465.34927636 66.01171875 464.32421875 C65.27953125 463.82664062 64.54734375 463.3290625 63.79296875 462.81640625 C61.43373352 461.40248103 59.06204794 460.46516956 56.51171875 459.44921875 C54.83342075 458.13055603 53.16557108 456.79841407 51.51171875 455.44921875 C50.52171875 455.11921875 49.53171875 454.78921875 48.51171875 454.44921875 C48.51171875 453.78921875 48.51171875 453.12921875 48.51171875 452.44921875 C47.78984375 452.18109375 47.06796875 451.91296875 46.32421875 451.63671875 C40.080657 449.00054823 34.4249523 444.93775533 28.66796875 441.38671875 C26.72585423 440.19452964 24.77673681 439.01355554 22.81640625 437.8515625 C20.83989473 436.64890549 18.99103897 435.39115209 17.13671875 434.01171875 C11.90607489 430.23340117 6.30959119 427.27744921 0.51171875 424.44921875 C0.51171875 423.78921875 0.51171875 423.12921875 0.51171875 422.44921875 C-0.18953125 422.18109375 -0.89078125 421.91296875 -1.61328125 421.63671875 C-7.51777399 419.19790653 -12.44882343 416.11857047 -17.62890625 412.421875 C-23.54205156 408.34245098 -29.73755662 404.68511114 -35.90625 401.0078125 C-39.29142099 398.96441882 -42.63850538 396.86247341 -45.98828125 394.76171875 C-47.41784088 393.86828495 -48.84753018 392.9750586 -50.27734375 392.08203125 C-52.87930766 390.45654267 -55.47810322 388.82621395 -58.07421875 387.19140625 C-63.71359108 383.66847294 -69.30326325 380.39286938 -75.3671875 377.65234375 C-77.48828125 376.44921875 -77.48828125 376.44921875 -79.1796875 374.6640625 C-82.64723705 371.33732714 -86.72465586 369.16916956 -90.86328125 366.76171875 C-98.34955864 362.3513042 -105.69397702 357.79979238 -112.93359375 352.99609375 C-115.27566554 351.27656748 -115.27566554 351.27656748 -117.48828125 351.44921875 C-118.10703125 350.81886719 -118.10703125 350.81886719 -118.73828125 350.17578125 C-121.06808916 347.87717613 -123.65558435 346.45579662 -126.48828125 344.82421875 C-128.06609375 343.90769531 -128.06609375 343.90769531 -129.67578125 342.97265625 C-132.44596633 341.36677632 -132.44596633 341.36677632 -135.48828125 340.44921875 C-135.48828125 339.78921875 -135.48828125 339.12921875 -135.48828125 338.44921875 C-136.47828125 338.44921875 -137.46828125 338.44921875 -138.48828125 338.44921875 C-138.48828125 337.78921875 -138.48828125 337.12921875 -138.48828125 336.44921875 C-139.57109375 336.10890625 -139.57109375 336.10890625 -140.67578125 335.76171875 C-146.35971529 333.1092162 -150.1402254 328.19937989 -152.48828125 322.44921875 C-153.04008583 319.20902894 -153.0334225 316.03428808 -153.00294495 312.7532196 C-153.00989047 311.79465948 -153.016836 310.83609936 -153.023992 309.84849197 C-153.04224604 306.6457449 -153.03200179 303.44373989 -153.02172852 300.2409668 C-153.02878786 297.94091234 -153.03753294 295.64086253 -153.0478363 293.34082031 C-153.0703405 287.09895081 -153.06738765 280.85733476 -153.05851483 274.61544013 C-153.05340423 269.40179531 -153.06069829 264.18819809 -153.06798691 258.97455817 C-153.08596187 245.96895366 -153.07957205 232.96349041 -153.0618171 219.95789102 C-153.0471293 208.67766946 -153.06173715 197.39771449 -153.09058727 186.11752727 C-153.12002423 174.52103744 -153.13043317 162.92468133 -153.12140507 151.32815582 C-153.11647925 144.82322762 -153.11867289 138.3185065 -153.13919258 131.81360435 C-153.15757114 125.69442302 -153.15156359 119.57573602 -153.12699318 113.45658112 C-153.12199196 111.21448576 -153.12545703 108.9723526 -153.13814163 106.73028755 C-153.15412492 103.66168377 -153.13907044 100.59469732 -153.11647034 97.52616882 C-153.12830607 96.64569923 -153.14014179 95.76522963 -153.15233618 94.85807914 C-153.05377032 88.23897103 -151.21153764 82.95038263 -147.48828125 77.44921875 C-144.88665924 75.10473507 -142.16340023 73.40815965 -139.11328125 71.69921875 C-138.28530029 71.20591064 -137.45731934 70.71260254 -136.60424805 70.2043457 C-134.82761334 69.14708051 -133.04475868 68.10020889 -131.25634766 67.06298828 C-127.5246912 64.88745034 -123.84192397 62.63541309 -120.15673828 60.38232422 C-117.25209935 58.60696362 -114.34094946 56.84259913 -111.4296875 55.078125 C-105.49566249 51.46818667 -99.6162975 47.77438443 -93.73828125 44.07421875 C-83.02817837 37.34497819 -72.17439677 30.87787755 -61.27734375 24.45703125 C-54.47256175 20.44717557 -47.69589771 16.39226509 -40.92578125 12.32421875 C-39.92168213 11.7209375 -38.91758301 11.11765625 -37.88305664 10.49609375 C-36.9264917 9.92117188 -35.96992676 9.34625 -34.984375 8.75390625 C-34.06897949 8.20444336 -33.15358398 7.65498047 -32.21044922 7.08886719 C-30.35720458 5.97259894 -28.5073891 4.85062216 -26.66064453 3.72363281 C-25.76974121 3.1819043 -24.87883789 2.64017578 -23.9609375 2.08203125 C-23.17082275 1.59879395 -22.38070801 1.11555664 -21.56665039 0.61767578 C-14.91249707 -3.12328249 -6.87075942 -3.05452574 0 0 Z " fill="#F4117A" transform="translate(152.48828125,1.55078125)"/>
<path d="M0 0 C3.24015121 1.85029923 6.33227216 3.91582547 9.41162109 6.02050781 C11.59742715 7.50752677 13.8087197 8.94741416 16.03125 10.37890625 C19.36869054 12.52964064 22.6974415 14.69281363 26.01953125 16.8671875 C44.02978604 28.63558576 62.22986417 40.10846549 80.51171875 51.44921875 C82.17146729 52.47958252 82.17146729 52.47958252 83.86474609 53.53076172 C102.00542304 64.79842433 102.00542304 64.79842433 120.51171875 75.44921875 C119.85171875 76.10921875 119.19171875 76.76921875 118.51171875 77.44921875 C117.19171875 76.78921875 115.87171875 76.12921875 114.51171875 75.44921875 C113.5348651 79.52225905 113.39626431 83.31742575 113.4140625 87.5 C113.41547745 88.15880661 113.4168924 88.81761322 113.41835022 89.49638367 C113.42391375 91.58487637 113.43645928 93.67325886 113.44921875 95.76171875 C113.45423847 97.18424324 113.45880055 98.60676941 113.46289062 100.02929688 C113.47387118 103.50263952 113.4911104 106.97591836 113.51171875 110.44921875 C114.17171875 110.77921875 114.83171875 111.10921875 115.51171875 111.44921875 C115.53484018 123.94878975 115.55263281 136.4483557 115.56353092 148.94794369 C115.56876019 154.75135488 115.57585862 160.5547515 115.5871582 166.3581543 C115.59798553 171.95372728 115.60399525 177.5492862 115.60659599 183.14486885 C115.60845052 185.28480819 115.61207166 187.42474671 115.61744881 189.5646801 C115.62465719 192.55086841 115.62570978 195.53699782 115.62524414 198.52319336 C115.62883942 199.41726898 115.63243469 200.3113446 115.63613892 201.23251343 C115.62577091 207.33516659 115.62577091 207.33516659 114.51171875 208.44921875 C113.12646631 215.25283759 112.59687128 222.72314962 114.51171875 229.44921875 C117.78246743 234.08081849 123.51228453 235.96389534 128.55664062 238.11767578 C131.97692696 239.65883917 135.26712501 241.40063128 138.55859375 243.1953125 C139.47738312 243.69626434 139.47738312 243.69626434 140.41473389 244.20733643 C141.66140953 244.88806362 142.90780791 245.56929882 144.15393066 246.2510376 C148.14706884 248.42340027 152.17164608 250.53706028 156.18945312 252.66333008 C160.31961301 254.88350347 164.41273287 257.17200437 168.51171875 259.44921875 C168.51171875 345.24921875 168.51171875 431.04921875 168.51171875 519.44921875 C162.10565858 519.44921875 157.00839222 519.13137299 151.8515625 515.17578125 C148.70905947 512.85693928 145.41235111 510.84732927 142.07421875 508.82421875 C141.41873047 508.416875 140.76324219 508.00953125 140.08789062 507.58984375 C136.56626539 505.45638172 133.67051217 503.95036832 129.51171875 503.44921875 C128.17628936 503.12438457 126.84210324 502.79413325 125.51171875 502.44921875 C125.51171875 501.78921875 125.51171875 501.12921875 125.51171875 500.44921875 C124.19171875 500.11921875 122.87171875 499.78921875 121.51171875 499.44921875 C121.51171875 498.78921875 121.51171875 498.12921875 121.51171875 497.44921875 C120.91359375 497.30484375 120.31546875 497.16046875 119.69921875 497.01171875 C117.95021471 496.56197485 116.22494852 496.02029534 114.51171875 495.44921875 C114.51171875 494.78921875 114.51171875 494.12921875 114.51171875 493.44921875 C112.53171875 492.78921875 110.55171875 492.12921875 108.51171875 491.44921875 C108.51171875 490.78921875 108.51171875 490.12921875 108.51171875 489.44921875 C106.86171875 489.11921875 105.21171875 488.78921875 103.51171875 488.44921875 C103.51171875 487.78921875 103.51171875 487.12921875 103.51171875 486.44921875 C102.85171875 486.40796875 102.19171875 486.36671875 101.51171875 486.32421875 C97.83493079 485.25182226 95.60724576 483.41096172 92.62109375 481.0703125 C88.32716672 477.77035006 83.85521058 474.91218299 78.82421875 472.88671875 C75.44926287 471.42211525 73.32504841 469.79366013 70.51171875 467.44921875 C69.02437733 466.38955609 67.52311756 465.34927636 66.01171875 464.32421875 C65.27953125 463.82664062 64.54734375 463.3290625 63.79296875 462.81640625 C61.43373352 461.40248103 59.06204794 460.46516956 56.51171875 459.44921875 C54.83342075 458.13055603 53.16557108 456.79841407 51.51171875 455.44921875 C50.52171875 455.11921875 49.53171875 454.78921875 48.51171875 454.44921875 C48.51171875 453.78921875 48.51171875 453.12921875 48.51171875 452.44921875 C47.78984375 452.18109375 47.06796875 451.91296875 46.32421875 451.63671875 C40.080657 449.00054823 34.4249523 444.93775533 28.66796875 441.38671875 C26.72585423 440.19452964 24.77673681 439.01355554 22.81640625 437.8515625 C20.83989473 436.64890549 18.99103897 435.39115209 17.13671875 434.01171875 C11.90607489 430.23340117 6.30959119 427.27744921 0.51171875 424.44921875 C0.51171875 423.78921875 0.51171875 423.12921875 0.51171875 422.44921875 C-0.18953125 422.18109375 -0.89078125 421.91296875 -1.61328125 421.63671875 C-7.51777399 419.19790653 -12.44882343 416.11857047 -17.62890625 412.421875 C-23.54205156 408.34245098 -29.73755662 404.68511114 -35.90625 401.0078125 C-39.29142099 398.96441882 -42.63850538 396.86247341 -45.98828125 394.76171875 C-47.41784088 393.86828495 -48.84753018 392.9750586 -50.27734375 392.08203125 C-52.87930766 390.45654267 -55.47810322 388.82621395 -58.07421875 387.19140625 C-63.71359108 383.66847294 -69.30326325 380.39286938 -75.3671875 377.65234375 C-77.48828125 376.44921875 -77.48828125 376.44921875 -79.1796875 374.6640625 C-82.64723705 371.33732714 -86.72465586 369.16916956 -90.86328125 366.76171875 C-98.34955864 362.3513042 -105.69397702 357.79979238 -112.93359375 352.99609375 C-115.27566554 351.27656748 -115.27566554 351.27656748 -117.48828125 351.44921875 C-118.10703125 350.81886719 -118.10703125 350.81886719 -118.73828125 350.17578125 C-121.06808916 347.87717613 -123.65558435 346.45579662 -126.48828125 344.82421875 C-128.06609375 343.90769531 -128.06609375 343.90769531 -129.67578125 342.97265625 C-132.44596633 341.36677632 -132.44596633 341.36677632 -135.48828125 340.44921875 C-135.48828125 339.78921875 -135.48828125 339.12921875 -135.48828125 338.44921875 C-136.47828125 338.44921875 -137.46828125 338.44921875 -138.48828125 338.44921875 C-138.48828125 337.78921875 -138.48828125 337.12921875 -138.48828125 336.44921875 C-139.57109375 336.10890625 -139.57109375 336.10890625 -140.67578125 335.76171875 C-146.35971529 333.1092162 -150.1402254 328.19937989 -152.48828125 322.44921875 C-153.04008583 319.20902894 -153.0334225 316.03428808 -153.00294495 312.7532196 C-153.00989047 311.79465948 -153.016836 310.83609936 -153.023992 309.84849197 C-153.04224604 306.6457449 -153.03200179 303.44373989 -153.02172852 300.2409668 C-153.02878786 297.94091234 -153.03753294 295.64086253 -153.0478363 293.34082031 C-153.0703405 287.09895081 -153.06738765 280.85733476 -153.05851483 274.61544013 C-153.05340423 269.40179531 -153.06069829 264.18819809 -153.06798691 258.97455817 C-153.08596187 245.96895366 -153.07957205 232.96349041 -153.0618171 219.95789102 C-153.0471293 208.67766946 -153.06173715 197.39771449 -153.09058727 186.11752727 C-153.12002423 174.52103744 -153.13043317 162.92468133 -153.12140507 151.32815582 C-153.11647925 144.82322762 -153.11867289 138.3185065 -153.13919258 131.81360435 C-153.15757114 125.69442302 -153.15156359 119.57573602 -153.12699318 113.45658112 C-153.12199196 111.21448576 -153.12545703 108.9723526 -153.13814163 106.73028755 C-153.15412492 103.66168377 -153.13907044 100.59469732 -153.11647034 97.52616882 C-153.12830607 96.64569923 -153.14014179 95.76522963 -153.15233618 94.85807914 C-153.05377032 88.23897103 -151.21153764 82.95038263 -147.48828125 77.44921875 C-144.88665924 75.10473507 -142.16340023 73.40815965 -139.11328125 71.69921875 C-138.28530029 71.20591064 -137.45731934 70.71260254 -136.60424805 70.2043457 C-134.82761334 69.14708051 -133.04475868 68.10020889 -131.25634766 67.06298828 C-127.5246912 64.88745034 -123.84192397 62.63541309 -120.15673828 60.38232422 C-117.25209935 58.60696362 -114.34094946 56.84259913 -111.4296875 55.078125 C-105.49566249 51.46818667 -99.6162975 47.77438443 -93.73828125 44.07421875 C-83.02817837 37.34497819 -72.17439677 30.87787755 -61.27734375 24.45703125 C-54.47256175 20.44717557 -47.69589771 16.39226509 -40.92578125 12.32421875 C-39.92168213 11.7209375 -38.91758301 11.11765625 -37.88305664 10.49609375 C-36.9264917 9.92117188 -35.96992676 9.34625 -34.984375 8.75390625 C-34.06897949 8.20444336 -33.15358398 7.65498047 -32.21044922 7.08886719 C-30.35720458 5.97259894 -28.5073891 4.85062216 -26.66064453 3.72363281 C-25.76974121 3.1819043 -24.87883789 2.64017578 -23.9609375 2.08203125 C-23.17082275 1.59879395 -22.38070801 1.11555664 -21.56665039 0.61767578 C-14.91249707 -3.12328249 -6.87075942 -3.05452574 0 0 Z " fill="#F06E00" transform="translate(152.48828125,1.55078125)"/>
<path d="M0 0 C4.85856352 2.5718732 9.51425373 5.48324506 14.19140625 8.3671875 C16.32296876 9.65311594 18.4558594 10.93684459 20.58984375 12.21875 C25.94146972 15.44028642 31.2755243 18.689846 36.60342407 21.95043945 C42.89391265 25.79951572 49.19699822 29.62771621 55.50177002 33.45333862 C57.26112953 34.52113865 59.02003817 35.58967728 60.77880859 36.65844727 C61.86629395 37.31901123 62.9537793 37.9795752 64.07421875 38.66015625 C65.61988525 39.60290405 65.61988525 39.60290405 67.19677734 40.56469727 C69.17635308 41.75621917 71.16889106 42.92649314 73.17431641 44.07397461 C74.0822998 44.59612549 74.9902832 45.11827637 75.92578125 45.65625 C76.72467773 46.10564941 77.52357422 46.55504883 78.34667969 47.01806641 C80.19140625 48.3671875 80.19140625 48.3671875 81.31640625 51.5546875 C81.27515625 52.4828125 81.23390625 53.4109375 81.19140625 54.3671875 C81.19140625 55.3571875 81.19140625 56.3471875 81.19140625 57.3671875 C80.88203125 58.6046875 80.88203125 58.6046875 80.56640625 59.8671875 C79.86855396 62.61089813 79.86855396 62.61089813 82.19140625 65.3671875 C81.75390625 67.4296875 81.75390625 67.4296875 81.19140625 69.3671875 C81.52140625 70.0271875 81.85140625 70.6871875 82.19140625 71.3671875 C81.85807292 72.70052083 81.52473958 74.03385417 81.19140625 75.3671875 C81.52140625 76.0271875 81.85140625 76.6871875 82.19140625 77.3671875 C82.00578125 78.0271875 81.82015625 78.6871875 81.62890625 79.3671875 C81.48453125 80.0271875 81.34015625 80.6871875 81.19140625 81.3671875 C81.85140625 82.0271875 82.51140625 82.6871875 83.19140625 83.3671875 C84.66871547 87.20819148 84.2588645 91.31969264 84.19140625 95.3671875 C82.87140625 95.6971875 81.55140625 96.0271875 80.19140625 96.3671875 C80.19140625 96.98207031 80.19140625 97.59695312 80.19140625 98.23046875 C80.19140625 102.609375 80.19140625 106.98828125 80.19140625 111.3671875 C79.58482178 111.69291748 78.9782373 112.01864746 78.35327148 112.35424805 C66.26002544 118.85622493 54.22904422 125.44447351 42.30737305 132.25610352 C36.64448578 135.47137742 30.93820583 138.58972489 25.18359375 141.63671875 C24.15810928 142.18006615 24.15810928 142.18006615 23.11190796 142.73439026 C19.73013797 144.52376614 16.3441748 146.3046508 12.95263672 148.07543945 C11.71446482 148.72727485 10.47634385 149.37920703 9.23828125 150.03125 C8.14354492 150.60311035 7.04880859 151.1749707 5.92089844 151.76416016 C3.55818644 153.15177796 2.03544464 154.39629174 0.19140625 156.3671875 C-2.31153541 157.48692456 -4.85209296 158.38272293 -7.43359375 159.3046875 C-9.85534764 160.38810371 -11.00177667 161.48028988 -12.80859375 163.3671875 C-15.13340549 164.38684177 -17.46654074 165.38778352 -19.80859375 166.3671875 C-20.46859375 167.0271875 -21.12859375 167.6871875 -21.80859375 168.3671875 C-23.43749407 169.0573995 -25.06745317 169.7452186 -26.70263672 170.42041016 C-30.9222547 172.3174283 -34.86934058 174.74200415 -38.87109375 177.0546875 C-48.0963856 182.33230065 -57.41550533 187.39778686 -66.80859375 192.3671875 C-76.68517085 197.59569836 -86.46920244 202.94861617 -96.17211914 208.49511719 C-104.97648332 213.50846585 -113.90616068 218.2775186 -122.85058594 223.03417969 C-129.97310455 226.82741367 -137.05545124 230.67285224 -144.01733398 234.75488281 C-147.51743007 236.77574453 -150.9354725 238.21461214 -154.80859375 239.3671875 C-154.80859375 240.0271875 -154.80859375 240.6871875 -154.80859375 241.3671875 C-155.75158325 241.84961914 -155.75158325 241.84961914 -156.71362305 242.34179688 C-159.64391429 243.8448677 -162.56998141 245.35599851 -165.49609375 246.8671875 C-166.48416016 247.3725 -167.47222656 247.8778125 -168.49023438 248.3984375 C-170.48488111 249.43126429 -172.46300798 250.49670992 -174.42206287 251.59555054 C-177.80859375 253.3671875 -177.80859375 253.3671875 -181.21254253 254.57559204 C-185.19624494 256.27893136 -188.26837512 257.78143258 -190.80859375 261.3671875 C-193.37789972 269.22429597 -192.50644142 278.08498589 -192.3762207 286.234375 C-192.38241794 288.80697035 -192.39433143 291.37955734 -192.41152954 293.95210266 C-192.43951589 299.48512405 -192.42017133 305.01633701 -192.36828041 310.54916382 C-192.29332816 318.54824646 -192.29037275 326.54609536 -192.30474379 334.54545724 C-192.326117 347.5246331 -192.28961643 360.50297101 -192.21655273 373.48193359 C-192.14572104 386.08648873 -192.10225028 398.69065078 -192.09545898 411.29541016 C-192.09503057 412.07291421 -192.09460216 412.85041827 -192.09416077 413.65148306 C-192.09217988 417.55216048 -192.09073566 421.45283788 -192.08955824 425.35351562 C-192.07910308 457.69185753 -191.97465473 490.02925713 -191.80859375 522.3671875 C-199.54670146 522.44659603 -199.54670146 522.44659603 -203.05859375 521.0546875 C-203.703125 520.81105469 -204.34765625 520.56742188 -205.01171875 520.31640625 C-206.80859375 519.3671875 -206.80859375 519.3671875 -208.21875 517.9296875 C-210.2610987 515.92246519 -212.42116806 514.91698945 -214.99609375 513.6796875 C-215.89714844 513.24269531 -216.79820312 512.80570313 -217.7265625 512.35546875 C-218.41363281 512.02933594 -219.10070312 511.70320312 -219.80859375 511.3671875 C-219.80859375 510.7071875 -219.80859375 510.0471875 -219.80859375 509.3671875 C-220.92234375 509.0578125 -222.03609375 508.7484375 -223.18359375 508.4296875 C-226.80859375 507.3671875 -226.80859375 507.3671875 -228.80859375 506.3671875 C-228.80859375 505.3771875 -228.80859375 504.3871875 -228.80859375 503.3671875 C-223.88919406 505.08211767 -219.62164663 507.75246618 -215.18359375 510.4296875 C-213.67215404 511.33987036 -212.15919287 512.24753273 -210.64453125 513.15234375 C-209.9798584 513.55332275 -209.31518555 513.95430176 -208.63037109 514.36743164 C-206.67512177 515.51122424 -206.67512177 515.51122424 -203.80859375 516.3671875 C-203.23109375 516.6971875 -202.65359375 517.0271875 -202.05859375 517.3671875 C-199.13790117 518.78779132 -199.13790117 518.78779132 -192.80859375 519.3671875 C-192.80859375 433.5671875 -192.80859375 347.7671875 -192.80859375 259.3671875 C-194.45859375 258.7071875 -196.10859375 258.0471875 -197.80859375 257.3671875 C-212.0675424 250.6481113 -225.74845855 242.77715144 -239.37109375 234.8671875 C-240.10368408 234.44590576 -240.83627441 234.02462402 -241.59106445 233.59057617 C-246.69170306 230.60096889 -246.69170306 230.60096889 -247.80859375 228.3671875 C-247.89875964 226.87002796 -247.92615397 225.36887005 -247.92211914 223.8690033 C-247.92204865 222.92107407 -247.92197815 221.97314484 -247.92190552 220.99649048 C-247.9167392 219.95213837 -247.91157288 218.90778625 -247.90625 217.83178711 C-247.90478973 216.73358139 -247.90332947 215.63537567 -247.90182495 214.50389099 C-247.89800786 212.10634351 -247.89187979 209.70879889 -247.88375854 207.31126213 C-247.87097397 203.48367121 -247.8644706 199.65611515 -247.85961914 195.82850647 C-247.84720127 186.97063299 -247.82587596 178.11278912 -247.8033905 169.25493622 C-247.77807532 159.28064047 -247.75725057 149.30635534 -247.74609375 139.33203125 C-247.74457306 138.04890423 -247.74305237 136.76577721 -247.7414856 135.44376755 C-247.72656613 116.06839478 -247.94694452 96.72464726 -248.80859375 77.3671875 C-248.14859375 77.3671875 -247.48859375 77.3671875 -246.80859375 77.3671875 C-246.80859375 76.7071875 -246.80859375 76.0471875 -246.80859375 75.3671875 C-241.54649074 76.11731708 -236.93402425 77.11383225 -232.24609375 79.6796875 C-227.66067341 82.13642304 -223.03238224 83.67108977 -218.05859375 85.1171875 C-217.33728271 85.32770752 -216.61597168 85.53822754 -215.87280273 85.75512695 C-193.17614022 92.16751813 -167.60442308 89.4181606 -146.80859375 78.3671875 C-140.02685149 74.55776014 -133.41730834 70.46671099 -126.80859375 66.3671875 C-125.60752699 65.63157646 -124.40579352 64.89705186 -123.203125 64.1640625 C-115.38431761 59.38536283 -107.62344545 54.51247086 -99.85693359 49.64941406 C-95.83754085 47.13334127 -91.8158817 44.6208911 -87.79394531 42.10888672 C-84.544957 40.07925428 -81.29764603 38.04706761 -78.0546875 36.0078125 C-69.13398027 30.4048854 -60.15382616 24.904755 -51.14038086 19.45214844 C-45.48396915 16.02353996 -39.87889201 12.525246 -34.3059082 8.96264648 C-31.15412579 6.94906764 -27.98717307 4.96321831 -24.80859375 2.9921875 C-23.73609375 2.32445312 -22.66359375 1.65671875 -21.55859375 0.96875 C-14.76197754 -2.9895066 -7.14470223 -3.39503865 0 0 Z " fill="#F9328C" transform="translate(513.80859375,1.6328125)"/>
<path d="M0 0 C14.19 0 28.38 0 43 0 C43 91.74 43 183.48 43 278 C28.48 278 13.96 278 -1 278 C-1.33 271.07 -1.66 264.14 -2 257 C-4.31 259.31 -6.62 261.62 -9 264 C-24.03448276 276 -24.03448276 276 -31 276 C-31.33 276.66 -31.66 277.32 -32 278 C-55.4313664 286.43652351 -80.79068155 282.82452046 -102.93359375 272.65234375 C-106.53182694 270.71342319 -109.76471138 268.4670631 -113.0625 266.0625 C-113.66126953 265.63259766 -114.26003906 265.20269531 -114.87695312 264.75976562 C-124.59969388 257.74192755 -124.59969388 257.74192755 -128.1875 253.375 C-129.7452979 251.4924896 -131.2694078 249.7305922 -133 248 C-133.70710678 246.35008418 -134.37943989 244.68437744 -135 243 C-135.66 243 -136.32 243 -137 243 C-140 237.25 -140 237.25 -140 235 C-140.66 235 -141.32 235 -142 235 C-142.67354499 233.56570999 -143.33859701 232.12742943 -144 230.6875 C-144.556875 229.48673828 -144.556875 229.48673828 -145.125 228.26171875 C-146 226 -146 226 -146 223 C-146.66 222.67 -147.32 222.34 -148 222 C-148.77098899 219.77722421 -149.44326675 217.51973708 -150.0625 215.25 C-150.40410156 214.01765625 -150.74570313 212.7853125 -151.09765625 211.515625 C-157.99149021 184.65653164 -155.78142088 160.27142216 -144.86669922 135.01367188 C-143.8676718 132.69255126 -142.92279053 130.35239866 -142 128 C-141.34 128 -140.68 128 -140 128 C-139.66548828 126.71416016 -139.66548828 126.71416016 -139.32421875 125.40234375 C-137.79155328 121.46443335 -135.57714029 118.68001398 -132.8125 115.5625 C-132.31347168 114.99047852 -131.81444336 114.41845703 -131.30029297 113.82910156 C-129.87752084 112.20952876 -128.44072872 110.60358907 -127 109 C-126.39800781 108.31292969 -125.79601563 107.62585938 -125.17578125 106.91796875 C-110.42963508 91.05750423 -87.64799736 81.62168782 -66.2890625 80.77734375 C-41.4464558 80.16626508 -21.28114448 88.25483306 -3 105 C-2.67 105.66 -2.34 106.32 -2 107 C-1.99576806 106.45462617 -1.99153612 105.90925234 -1.98717594 105.34735203 C-1.88400029 92.09477185 -1.77531928 78.84224676 -1.66066074 65.58976078 C-1.60538119 59.18103358 -1.55195329 52.77230185 -1.50268555 46.36352539 C-1.45511605 40.18436499 -1.40277622 34.00526209 -1.34705925 27.82616997 C-1.32660198 25.46296041 -1.30789462 23.09973506 -1.29092598 20.73649788 C-1.26695635 17.43893826 -1.23689199 14.14148848 -1.20532227 10.84399414 C-1.1995668 9.85641113 -1.19381134 8.86882812 -1.18788147 7.85131836 C-1.17809265 6.95804337 -1.16830383 6.06476837 -1.15821838 5.14442444 C-1.15176583 4.36366578 -1.14531328 3.58290712 -1.1386652 2.77848911 C-1 1 -1 1 0 0 Z M-96 140 C-108.18219029 156.65983313 -111.33336359 175.04357056 -108.6953125 195.34472656 C-105.93016461 210.51777021 -97.66458913 223.60332826 -85.453125 232.94921875 C-71.89349888 241.521148 -56.03644211 244.23369816 -40.31640625 241.31640625 C-24.43901583 236.72282751 -12.67844544 228.01312977 -4.63183594 213.45288086 C3.81627749 197.13784561 5.11689468 178.12879809 -0.00390625 160.5546875 C-5.46523277 145.30623128 -14.40132814 133.32106014 -29 126 C-36.92364615 122.30937315 -44.3150934 121.28456444 -53 121 C-54.27875 120.896875 -55.5575 120.79375 -56.875 120.6875 C-71.78462318 121.00204901 -86.68254686 128.52926936 -96 140 Z " fill="#000082" transform="translate(1733,57)"/>
<path d="M0 0 C3.24015121 1.85029923 6.33227216 3.91582547 9.41162109 6.02050781 C11.59742715 7.50752677 13.8087197 8.94741416 16.03125 10.37890625 C19.35997714 12.52385182 22.67943236 14.682029 25.9921875 16.8515625 C32.0347689 20.80058201 38.11647803 24.68746143 44.19921875 28.57421875 C45.25367188 29.250896 46.308125 29.92757324 47.39453125 30.62475586 C52.16626667 33.6854557 56.9453401 36.72808189 61.7734375 39.69921875 C62.56081299 40.19019043 63.34818848 40.68116211 64.15942383 41.18701172 C65.5905826 42.07836809 67.02875429 42.95861455 68.4753418 43.82470703 C73.39013035 46.9096083 75.2454962 49.99588453 77.19921875 55.32421875 C77.78168923 59.28501802 78.32643939 63.81977746 76.51171875 67.44921875 C76.82582803 69.78521766 77.16217236 72.1182591 77.51171875 74.44921875 C77.58810975 76.67080036 77.61985339 78.89431759 77.609375 81.1171875 C77.60615234 82.33986328 77.60292969 83.56253906 77.59960938 84.82226562 C77.59123047 86.08103516 77.58285156 87.33980469 77.57421875 88.63671875 C77.56970703 89.90708984 77.56519531 91.17746094 77.56054688 92.48632812 C77.55184828 94.83619122 77.54109174 97.18604828 77.52758789 99.53588867 C77.5079541 103.14034999 77.5118809 106.45014301 78.13671875 110.01171875 C78.51171875 113.44921875 78.51171875 113.44921875 76.51171875 116.44921875 C76.84171875 117.43921875 77.17171875 118.42921875 77.51171875 119.44921875 C77.64025966 121.95576656 77.63034325 124.02744275 76.94921875 126.44921875 C76.37940557 129.05407902 76.8960263 130.86331047 77.51171875 133.44921875 C78.37201508 137.57864111 78.3510682 140.35739019 77.51171875 144.44921875 C77.83722377 146.11743198 78.17017938 147.78421432 78.51171875 149.44921875 C78.07421875 151.57421875 78.07421875 151.57421875 77.51171875 153.44921875 C77.399289 156.37895015 77.399289 156.37895015 78.07421875 158.88671875 C78.52688601 161.53805557 78.27100113 162.91827748 77.51171875 165.44921875 C77.39648556 168.36946244 77.39648556 168.36946244 78.07421875 170.82421875 C78.5580521 173.72721884 78.13841439 175.59427196 77.51171875 178.44921875 C77.35058404 182.31645189 77.7174578 185.67647926 78.51171875 189.44921875 C78.51171875 193.44921875 78.51171875 193.44921875 77.94921875 197.13671875 C77.33283685 201.68253523 77.83255416 205.93538643 78.51171875 210.44921875 C74.08701453 209.10638982 70.25004723 207.35603445 66.21484375 205.10546875 C65.62841095 204.78023224 65.04197815 204.45499573 64.43777466 204.11990356 C62.54310937 203.06768672 60.65245451 202.00847739 58.76171875 200.94921875 C57.44640051 200.21744311 56.13080608 199.48616368 54.81494141 198.75537109 C51.04382819 196.6593366 47.27718666 194.5553739 43.51171875 192.44921875 C40.30408673 190.65629191 37.09620417 188.86382605 33.88671875 187.07421875 C33.19755371 186.68991699 32.50838867 186.30561523 31.79833984 185.90966797 C20.84295018 179.82793926 9.73394693 174.02216199 -1.48828125 168.44921875 C-1.48828125 167.78921875 -1.48828125 167.12921875 -1.48828125 166.44921875 C-2.22280518 166.33022217 -2.9573291 166.21122559 -3.71411133 166.08862305 C-6.46962712 165.45351825 -8.41823398 164.59313991 -10.875 163.21875 C-11.71732178 162.75283447 -12.55964355 162.28691895 -13.42749023 161.80688477 C-14.33442627 161.29697998 -15.2413623 160.7870752 -16.17578125 160.26171875 C-18.15965659 159.16185866 -20.14405346 158.06293891 -22.12890625 156.96484375 C-23.16853516 156.38798828 -24.20816406 155.81113281 -25.27929688 155.21679688 C-30.6353919 152.26654368 -36.03352324 149.39515438 -41.42578125 146.51171875 C-49.54937343 142.15585732 -57.61040025 137.71030223 -65.61328125 133.13671875 C-75.48701609 127.49694726 -85.50554611 122.15952556 -95.5617981 116.85559082 C-105.41157829 111.65734256 -115.16091226 106.31559242 -124.83666992 100.7980957 C-130.29442149 97.68630307 -135.76725614 94.61204484 -141.30078125 91.63671875 C-142.46222656 91.01152344 -143.62367188 90.38632813 -144.8203125 89.7421875 C-147.29411807 88.30384813 -147.29411807 88.30384813 -149.48828125 88.44921875 C-150.47828125 89.43921875 -150.47828125 89.43921875 -151.48828125 90.44921875 C-150.93740012 84.94040744 -150.31510739 79.80455981 -145.83276367 76.06982422 C-143.67624218 74.61481538 -141.47815932 73.27237941 -139.23828125 71.94921875 C-138.40127686 71.43786377 -137.56427246 70.92650879 -136.7019043 70.3996582 C-133.97215245 68.73570188 -131.23045334 67.09260942 -128.48828125 65.44921875 C-126.64480633 64.32981455 -124.80236272 63.20871026 -122.9609375 62.0859375 C-120.10343319 60.34371434 -117.24511261 58.6029878 -114.3828125 56.86865234 C-107.45850267 52.67033155 -100.59109127 48.38800956 -93.73828125 44.07421875 C-83.02817837 37.34497819 -72.17439677 30.87787755 -61.27734375 24.45703125 C-54.47256175 20.44717557 -47.69589771 16.39226509 -40.92578125 12.32421875 C-39.92168213 11.7209375 -38.91758301 11.11765625 -37.88305664 10.49609375 C-36.9264917 9.92117188 -35.96992676 9.34625 -34.984375 8.75390625 C-34.06897949 8.20444336 -33.15358398 7.65498047 -32.21044922 7.08886719 C-30.35720458 5.97259894 -28.5073891 4.85062216 -26.66064453 3.72363281 C-25.76974121 3.1819043 -24.87883789 2.64017578 -23.9609375 2.08203125 C-23.17082275 1.59879395 -22.38070801 1.11555664 -21.56665039 0.61767578 C-14.91249707 -3.12328249 -6.87075942 -3.05452574 0 0 Z " fill="#F79200" transform="translate(152.48828125,1.55078125)"/>
<path d="M0 0 C3.69549863 3.10848802 6.93277426 6.43277426 10.375 9.875 C10.705 2.615 11.035 -4.645 11.375 -12.125 C25.895 -12.125 40.415 -12.125 55.375 -12.125 C55.375 51.565 55.375 115.255 55.375 180.875 C40.855 181.205 26.335 181.535 11.375 181.875 C11.045 174.285 10.715 166.695 10.375 158.875 C8.951875 160.380625 7.52875 161.88625 6.0625 163.4375 C-3.0688955 172.55601624 -14.97525969 179.88506138 -27.625 182.875 C-28.24914795 183.0404834 -28.8732959 183.2059668 -29.51635742 183.37646484 C-50.81374371 188.69770031 -75.61853501 185.17286978 -94.4453125 173.9296875 C-98.7377824 171.15592931 -102.73638544 168.18626567 -106.625 164.875 C-107.5325 164.17375 -108.44 163.4725 -109.375 162.75 C-111.9642394 160.5923005 -114.34123844 158.35451255 -116.625 155.875 C-116.625 155.215 -116.625 154.555 -116.625 153.875 C-117.285 153.875 -117.945 153.875 -118.625 153.875 C-120.29123579 151.70005969 -121.81543948 149.53837589 -123.3125 147.25 C-123.75875732 146.56921387 -124.20501465 145.88842773 -124.66479492 145.18701172 C-131.87940129 133.98849064 -136.71715631 122.64930542 -140.10717773 109.79370117 C-140.60384788 107.95337555 -141.1562519 106.12836606 -141.7109375 104.3046875 C-148.12172899 80.25052113 -140.74042691 50.93812059 -128.72949219 29.70898438 C-125.76693747 24.78972906 -122.25307407 20.31921927 -118.625 15.875 C-118.15964844 15.2459375 -117.69429687 14.616875 -117.21484375 13.96875 C-104.73281792 -2.21589511 -82.94688762 -12.15392127 -63.27734375 -15.734375 C-40.247727 -18.19743562 -18.56732114 -14.48750618 0 0 Z M-81.625 39.875 C-93.96124883 55.32754863 -98.91405586 72.09604919 -97.625 91.875 C-95.38726122 108.20350012 -88.84361528 123.91808325 -75.625 134.375 C-61.36056438 143.89415243 -46.33041783 146.89545472 -29.4453125 144.40625 C-18.03431471 141.6279201 -7.36056502 135.79441459 0.375 126.875 C1.18468349 124.72308312 1.18468349 124.72308312 1.375 122.875 C2.035 122.875 2.695 122.875 3.375 122.875 C13.49332577 104.15249222 17.93989671 85.56079641 12.28198242 64.52783203 C7.84216374 49.8226764 -1.10906145 37.36935489 -14.625 29.875 C-22.83780607 26.19306836 -30.63648738 24.08533961 -39.625 23.875 C-40.35847656 23.82472656 -41.09195312 23.77445313 -41.84765625 23.72265625 C-56.03538744 23.07892979 -72.1278272 29.11889964 -81.625 39.875 Z " fill="#000082" transform="translate(1496.625,154.125)"/>
<path d="M0 0 C4.55191313 3.78568524 8.81532207 7.81532207 13 12 C13.33 4.74 13.66 -2.52 14 -10 C28.52 -10 43.04 -10 58 -10 C58 53.69 58 117.38 58 183 C43.48 183 28.96 183 14 183 C13.67 176.07 13.34 169.14 13 162 C11.453125 163.485 9.90625 164.97 8.3125 166.5 C-6.35101357 180.04152085 -25.57426158 188.43283122 -45.65649414 188.04638672 C-72.50178806 186.97112843 -95.15168547 176.70113863 -113.61328125 157.24609375 C-115.78427221 154.86191219 -117.91684919 152.46114189 -120 150 C-120.6496875 149.26652344 -121.299375 148.53304687 -121.96875 147.77734375 C-124.68860881 144.05845988 -126.56402988 140.10677634 -128.5 135.9375 C-128.89654785 135.08478516 -129.2930957 134.23207031 -129.70166016 133.35351562 C-142.38751323 105.68482575 -143.62749724 74.69046499 -133 46 C-130.68546096 40.80282908 -127.84101196 35.92125085 -125 31 C-123.98546819 29.00733214 -122.98046502 27.00964881 -122 25 C-121.34 25 -120.68 25 -120 25 C-119.7525 24.46375 -119.505 23.9275 -119.25 23.375 C-115.8095169 16.83808211 -111.68146917 12.57881561 -106 8 C-105.13375 7.28585938 -104.2675 6.57171875 -103.375 5.8359375 C-74.00714004 -17.38701698 -31.4914871 -22.37948288 0 0 Z M-82 46.37890625 C-92.9771708 61.11765066 -96.509059 79.16879426 -94.375 97.1875 C-91.67069304 113.03473879 -84.33611686 126.66626733 -72 137 C-58.19235639 146.54653104 -42.88347858 148.77551356 -26.5703125 146.52734375 C-18.02193208 144.67334436 -9.68740959 140.69668224 -3 135 C-3 134.34 -3 133.68 -3 133 C-2.40703125 132.74089844 -1.8140625 132.48179687 -1.203125 132.21484375 C1.15858141 130.91255529 2.50886446 129.60701522 4.25 127.5625 C4.77078125 126.96566406 5.2915625 126.36882812 5.828125 125.75390625 C7.2777773 123.93582307 7.2777773 123.93582307 7 121 C7.66 121 8.32 121 9 121 C17.4665882 103.99989404 20.35012989 84.59671487 15.08984375 66.00390625 C9.69887201 51.14491964 1.49192178 38.93283356 -12.77734375 31.40234375 C-37.49945525 20.64447947 -64.45195786 25.50633268 -82 46.37890625 Z " fill="#000082" transform="translate(1092,152)"/>
<path d="M0 0 C3.42971476 2.95441571 6.63477458 6.0896204 9.8125 9.3125 C9.80726318 8.75264404 9.80202637 8.19278809 9.79663086 7.6159668 C9.77583309 5.07732263 9.76283096 2.53869641 9.75 0 C9.74162109 -0.88107422 9.73324219 -1.76214844 9.72460938 -2.66992188 C9.72138672 -3.51748047 9.71816406 -4.36503906 9.71484375 -5.23828125 C9.70960693 -6.01856689 9.70437012 -6.79885254 9.69897461 -7.6027832 C9.8125 -9.6875 9.8125 -9.6875 10.8125 -12.6875 C25.0025 -12.6875 39.1925 -12.6875 53.8125 -12.6875 C53.8125 51.0025 53.8125 114.6925 53.8125 180.3125 C39.6225 180.3125 25.4325 180.3125 10.8125 180.3125 C10.4825 173.0525 10.1525 165.7925 9.8125 158.3125 C8.61625 159.611875 7.42 160.91125 6.1875 162.25 C-10.32362726 178.70928698 -31.87588063 184.93717481 -54.73828125 185.44140625 C-62.36499048 185.41085159 -68.96999604 183.73109094 -76.1875 181.3125 C-77.43402344 180.92578125 -78.68054687 180.5390625 -79.96484375 180.140625 C-86.42050071 178.01859475 -91.94885868 175.6042645 -97.41796875 171.546875 C-99.27863072 170.12467533 -99.27863072 170.12467533 -102.1875 169.3125 C-102.1875 168.6525 -102.1875 167.9925 -102.1875 167.3125 C-102.76628906 167.03921875 -103.34507813 166.7659375 -103.94140625 166.484375 C-110.09558897 163.27349706 -115.11801071 158.90804778 -119.1875 153.3125 C-119.1875 152.6525 -119.1875 151.9925 -119.1875 151.3125 C-119.8475 151.3125 -120.5075 151.3125 -121.1875 151.3125 C-122.63713959 149.40875645 -123.99934323 147.43782841 -125.3125 145.4375 C-126.39917969 143.80167969 -126.39917969 143.80167969 -127.5078125 142.1328125 C-129.1875 139.3125 -129.1875 139.3125 -129.1875 137.3125 C-129.8475 136.9825 -130.5075 136.6525 -131.1875 136.3125 C-131.1875 135.3225 -131.1875 134.3325 -131.1875 133.3125 C-131.8475 132.9825 -132.5075 132.6525 -133.1875 132.3125 C-134.23853735 129.92514372 -135.17586925 127.57330672 -136.0625 125.125 C-136.32571045 124.40683105 -136.5889209 123.68866211 -136.86010742 122.94873047 C-146.91739201 95.06332072 -146.60503429 65.56208913 -134.1875 38.3125 C-130.10811995 29.77379763 -125.37436145 22.45670945 -119.1875 15.3125 C-118.57261719 14.55324219 -117.95773437 13.79398438 -117.32421875 13.01171875 C-89.17541479 -20.73187854 -34.44450537 -27.66626937 0 0 Z M-84.41796875 41.88671875 C-96.40070635 57.64637926 -100.48726428 76.01443965 -97.89453125 95.51611328 C-95.16404083 111.39626391 -87.43033058 125.31244491 -74.5 135.0625 C-61.57346966 143.66684682 -46.37820415 146.25091889 -31.14404297 144.01220703 C-19.64222192 141.68935405 -9.19547415 135.92107221 -1.1875 127.3125 C0.34384378 124.59423208 0.34384378 124.59423208 0.8125 122.3125 C1.4725 122.3125 2.1325 122.3125 2.8125 122.3125 C12.19940907 105.14404399 17.24206704 87.14859524 12.50390625 67.56640625 C10.1106848 59.76477473 6.56406226 52.53886992 2.8125 45.3125 C2.1525 45.3125 1.4925 45.3125 0.8125 45.3125 C0.585625 44.755625 0.35875 44.19875 0.125 43.625 C-5.09498363 34.42788599 -15.45777874 28.48086975 -25.23046875 25.33203125 C-46.83468388 19.72703999 -69.50282727 24.67292149 -84.41796875 41.88671875 Z " fill="#000082" transform="translate(1946.1875,154.6875)"/>
<path d="M0 0 C20.19221999 -0.02254564 40.38442984 -0.04097836 60.5766592 -0.05181217 C69.95158271 -0.05697548 79.32649787 -0.06401884 88.70141602 -0.07543945 C96.86954522 -0.08538523 105.03766837 -0.09185317 113.20580345 -0.09408849 C117.53351055 -0.09539578 121.86120034 -0.09848277 126.1889019 -0.10573006 C130.25749728 -0.1124886 134.32606812 -0.1146173 138.39466858 -0.11310768 C139.89231563 -0.11338408 141.38996345 -0.11539019 142.88760567 -0.11920547 C144.92351318 -0.12414006 146.9594337 -0.12239818 148.99534607 -0.12025452 C150.13744758 -0.12117631 151.27954908 -0.1220981 152.45625973 -0.12304783 C155 0 155 0 156 1 C156.34106892 5.55549444 156.39988271 10.11326112 156.45996094 14.68017578 C156.48641197 16.21272296 156.52716419 17.74509765 156.58300781 19.27685547 C157.09905455 33.60492414 157.09905455 33.60492414 152.8046875 39.1640625 C151.56494309 40.47034509 150.29820715 41.75180187 149 43 C148.06277364 44.10125662 147.13709906 45.21251302 146.2265625 46.3359375 C145.36100527 47.35035164 144.49380638 48.36336724 143.625 49.375 C140.22572753 53.36089577 136.86367777 57.36944246 133.5625 61.4375 C129.60556582 66.30049424 125.53564058 71.05700203 121.44384766 75.80615234 C117.64598499 80.22308718 113.94319959 84.70953997 110.26953125 89.23046875 C105.45311061 95.10799411 100.505057 100.87611914 95.58398438 106.66601562 C90.09848321 113.12267053 84.66391313 119.61161302 79.31640625 126.18359375 C75.88568712 130.3548391 72.37925048 134.46020758 68.87109375 138.56640625 C66.4685487 141.40796997 64.14219917 144.30664925 61.82055664 147.21459961 C61.10396378 148.11174179 60.38737091 149.00888397 59.64906311 149.93321228 C59.10487228 150.61525223 58.56068146 151.29729218 58 152 C59.23805893 152.01030746 60.47611786 152.02061493 61.75169373 152.03123474 C73.39190429 152.12878746 85.03205923 152.23150384 96.67217922 152.33933926 C102.65716605 152.39461717 108.64215772 152.44804481 114.62719727 152.49731445 C120.39787773 152.54488636 126.16849668 152.59722629 131.93910408 152.65294075 C134.14601176 152.67339692 136.35293634 152.69210447 138.55987358 152.70907402 C141.63950616 152.73304608 144.71902126 152.7631101 147.79858398 152.79467773 C148.72071182 152.8004332 149.64283966 152.80618866 150.59291077 152.81211853 C156.88594784 152.88594784 156.88594784 152.88594784 158 154 C158 166.87 158 179.74 158 193 C105.53 193 53.06 193 -1 193 C-1 158 -1 158 10 145 C13.35068096 140.90481293 13.35068096 140.90481293 16.6953125 136.8046875 C19.22867366 133.72171579 21.79526269 130.66916259 24.375 127.625 C24.83068359 127.08681641 25.28636719 126.54863281 25.75585938 125.99414062 C28.17423363 123.14161223 30.60182389 120.29736554 33.0390625 117.4609375 C33.53486816 116.88134277 34.03067383 116.30174805 34.54150391 115.70458984 C35.48601513 114.60071014 36.43342745 113.49930339 37.38427734 112.40087891 C39.29765542 110.16059922 41.00966146 107.98349501 42.5 105.4375 C44.31296445 102.49143278 46.52454486 100.41393067 49 98 C50.96335827 95.80984 52.85783392 93.56422863 54.75 91.3125 C55.24371094 90.73177734 55.73742188 90.15105469 56.24609375 89.55273438 C58.8939984 86.46207646 58.8939984 86.46207646 61 83 C61.66 83 62.32 83 63 83 C63.22558594 82.46632813 63.45117188 81.93265625 63.68359375 81.3828125 C65.43002935 78.2216086 67.71862865 75.60012341 70.0625 72.875 C73.36410547 69.16892732 73.36410547 69.16892732 76 65 C76.66 65 77.32 65 78 65 C78.27545654 64.40687012 78.55091309 63.81374023 78.8347168 63.20263672 C79.94294899 61.10783873 81.09193228 59.53616996 82.64453125 57.7578125 C83.41313477 56.87029297 83.41313477 56.87029297 84.19726562 55.96484375 C84.73029297 55.35769531 85.26332031 54.75054687 85.8125 54.125 C86.86106288 52.91960633 87.90924364 51.71388014 88.95703125 50.5078125 C89.42085205 49.97816895 89.88467285 49.44852539 90.36254883 48.90283203 C92.60644928 46.2952638 94.7976818 43.64278184 97 41 C64.99 40.67 32.98 40.34 0 40 C0 26.8 0 13.6 0 0 Z " fill="#000082" transform="translate(1183,142)"/>
<path d="M0 0 C15.51 0 31.02 0 47 0 C47 71.61 47 143.22 47 217 C72.41 217 97.82 217 124 217 C134.60922031 227.60922031 125 246.99629675 125 262 C83.75 262 42.5 262 0 262 C0 175.54 0 89.08 0 0 Z " fill="#000083" transform="translate(817,73)"/>
<path d="M0 0 C7.56830262 4.30907499 14.98454342 8.83219847 22.375 13.4375 C30.48130082 18.48602134 38.65432991 23.35728269 47 28 C46.34 28.66 45.68 29.32 45 30 C43.68 29.34 42.36 28.68 41 28 C40.02314635 32.0730403 39.88454556 35.868207 39.90234375 40.05078125 C39.90446617 41.03899117 39.90446617 41.03899117 39.90663147 42.04716492 C39.912195 44.13565762 39.92474053 46.22404011 39.9375 48.3125 C39.94251972 49.73502449 39.9470818 51.15755066 39.95117188 52.58007812 C39.96215243 56.05342077 39.97939165 59.52669961 40 63 C40.99 63.495 40.99 63.495 42 64 C42.02312143 76.499571 42.04091406 88.99913695 42.05181217 101.49872494 C42.05704144 107.30213613 42.06413987 113.10553275 42.07543945 118.90893555 C42.08626678 124.50450853 42.0922765 130.10006745 42.09487724 135.6956501 C42.09673177 137.83558944 42.10035291 139.97552796 42.10573006 142.11546135 C42.11293844 145.10164966 42.11399103 148.08777907 42.11352539 151.07397461 C42.11712067 151.96805023 42.12071594 152.86212585 42.12442017 153.78329468 C42.11405216 159.88594784 42.11405216 159.88594784 41 161 C40.91299658 162.63472882 40.89298937 164.27314055 40.90234375 165.91015625 C40.90556641 166.89951172 40.90878906 167.88886719 40.91210938 168.90820312 C40.92048828 169.94912109 40.92886719 170.99003906 40.9375 172.0625 C40.94201172 173.10728516 40.94652344 174.15207031 40.95117188 175.22851562 C40.96300087 177.8190666 40.97948311 180.40950559 41 183 C36.88397691 181.73629213 33.29328151 180.20294843 29.55859375 178.06640625 C28.56279297 177.49986328 27.56699219 176.93332031 26.54101562 176.34960938 C25.51685547 175.75986328 24.49269531 175.17011719 23.4375 174.5625 C21.89545898 173.68368164 21.89545898 173.68368164 20.32226562 172.78710938 C17.54289957 171.20018682 14.76684342 169.60865421 12 168 C11.06551025 167.48300537 10.13102051 166.96601074 9.16821289 166.43334961 C8.45270264 165.96034424 7.73719238 165.48733887 7 165 C7 164.34 7 163.68 7 163 C6.34 163 5.68 163 5 163 C2.53933381 152.91566265 2.53933381 152.91566265 3 149 C3.66 148.01 4.32 147.02 5 146 C4.34 145.67 3.68 145.34 3 145 C3.66 144.01 4.32 143.02 5 142 C4.34 141.67 3.68 141.34 3 141 C3 124 3 124 3.5625 121.5625 C4.01516726 118.91116318 3.75928238 117.53094127 3 115 C3 112 3 112 3.5625 109.5625 C4.01516726 106.91116318 3.75928238 105.53094127 3 103 C3 99.58012972 3.47254343 97.05491313 5 94 C4.34 93.67 3.68 93.34 3 93 C3.495 92.01 3.495 92.01 4 91 C3.93848887 88.91706309 3.93848887 88.91706309 3.625 86.625 C3.53476563 85.85414063 3.44453125 85.08328125 3.3515625 84.2890625 C3.05091381 82.01097532 3.05091381 82.01097532 2.3984375 79.8984375 C2 78 2 78 3 75 C3.04165365 73.33385392 3.04165365 71.66614608 3 70 C3 63 3 63 3.5625 59.4375 C4.24917546 56.02507202 4.24917546 56.02507202 3 53 C2.92775711 50.67811352 2.91617801 48.35416223 2.9375 46.03125 C2.94128662 45.35453247 2.94507324 44.67781494 2.94897461 43.98059082 C2.96531202 41.08903623 2.9934787 38.19762354 3.02050781 35.30615234 C3.03857522 33.19369152 3.05067934 31.08125351 3.0625 28.96875 C3.07410156 27.70482422 3.08570313 26.44089844 3.09765625 25.13867188 C3.14911206 21.9697164 3.14911206 21.9697164 2 19 C2.33 18.67 2.66 18.34 3 18 C3.59950831 11.87809787 3.22024614 7.36707689 0 2 C0 1.34 0 0.68 0 0 Z " fill="#F47017" transform="translate(226,49)"/>
<path d="M0 0 C5.96932789 1.56572535 10.72241882 4.72869052 15.875 8 C16.79667969 8.5787085 17.71835937 9.15741699 18.66796875 9.75366211 C20.54670414 10.93355601 22.42399199 12.11575803 24.29980469 13.30029297 C26.77807326 14.86030254 29.26491651 16.40491431 31.7578125 17.94140625 C32.47855957 18.38677734 33.19930664 18.83214844 33.94189453 19.29101562 C35.27252525 20.11307076 36.60416438 20.93349683 37.93701172 21.75195312 C44.4644063 25.80938019 48.67135837 29.08666739 52 36 C51.505 36.99 51.505 36.99 51 38 C50.01 37.67 49.02 37.34 48 37 C45.62418451 38.14026849 43.44093795 39.33710747 41.1875 40.6875 C39.75622878 41.51998608 38.32387332 42.35060993 36.890625 43.1796875 C36.11267578 43.63182617 35.33472656 44.08396484 34.53320312 44.54980469 C29.8774571 47.21510262 25.15396588 49.75671152 20.4375 52.3125 C18.6024852 53.30789468 16.76783337 54.30395886 14.93359375 55.30078125 C14.08780762 55.75791504 13.24202148 56.21504883 12.37060547 56.68603516 C10.22124696 57.87736857 8.13144051 59.13669257 6.03515625 60.41796875 C4.53275391 61.20107422 4.53275391 61.20107422 3 62 C2.01 61.67 1.02 61.34 0 61 C0.185625 60.443125 0.37125 59.88625 0.5625 59.3125 C1.08119018 56.5708519 0.59530945 54.71196528 0 52 C-0.3125 49.375 -0.3125 49.375 0 47 C0.66 46.5875 1.32 46.175 2 45.75 C4.18691969 44.20434167 4.18691969 44.20434167 4.37109375 41.921875 C4.43750587 39.49978607 4.47837523 37.37894711 4 35 C3.02363683 33.97690912 2.0259252 32.97338455 1 32 C1.375 29.5 1.375 29.5 2 27 C1.67 26.01 1.34 25.02 1 24 C1.33 23.01 1.66 22.02 2 21 C1.67 20.01 1.34 19.02 1 18 C1.33 17.01 1.66 16.02 2 15 C1.34 14.34 0.68 13.68 0 13 C0.375 10.5625 0.375 10.5625 1 8 C1 5.16032769 0.59732819 2.76264289 0 0 Z M3 4 C4 6 4 6 4 6 Z M2 55 C3 57 3 57 3 57 Z " fill="#FD05EF" transform="translate(593,51)"/>
<path d="M0 0 C0.66 0.33 1.32 0.66 2 1 C1.67 1.33 1.34 1.66 1 2 C0.89851809 3.39680853 0.86603215 4.79869929 0.8613348 6.19918156 C0.85586036 7.11033885 0.85038591 8.02149614 0.84474558 8.96026427 C0.84376747 9.97288893 0.84278936 10.98551359 0.84178162 12.02882385 C0.83684364 13.09548544 0.83190566 14.16214703 0.82681805 15.2611317 C0.81135881 18.86492273 0.80305975 22.46869583 0.79467773 26.07250977 C0.78510582 28.64405477 0.77509616 31.21559817 0.76467896 33.78713989 C0.74288518 39.3387076 0.72475135 44.8902777 0.70907402 50.44186592 C0.68640174 58.46861876 0.6582553 66.49534498 0.62875474 74.52207529 C0.58104636 87.5435951 0.53779101 100.56512577 0.49731445 113.58666992 C0.45797602 126.23902228 0.41655378 138.89136496 0.37231445 151.54370117 C0.36959018 152.32304429 0.36686591 153.10238742 0.36405908 153.905347 C0.35037988 157.81491908 0.33665955 161.72449102 0.32291877 165.63406289 C0.20890302 198.08935534 0.10210498 230.54466785 0 263 C-7.73810771 263.07940853 -7.73810771 263.07940853 -11.25 261.6875 C-11.89453125 261.44386719 -12.5390625 261.20023438 -13.203125 260.94921875 C-15 260 -15 260 -16.41015625 258.5625 C-18.45250495 256.55527769 -20.61257431 255.54980195 -23.1875 254.3125 C-24.08855469 253.87550781 -24.98960937 253.43851563 -25.91796875 252.98828125 C-26.60503906 252.66214844 -27.29210937 252.33601562 -28 252 C-28 251.34 -28 250.68 -28 250 C-29.11375 249.690625 -30.2275 249.38125 -31.375 249.0625 C-35 248 -35 248 -37 247 C-37 246.01 -37 245.02 -37 244 C-32.08060031 245.71493017 -27.81305288 248.38527868 -23.375 251.0625 C-21.86356029 251.97268286 -20.35059912 252.88034523 -18.8359375 253.78515625 C-18.17126465 254.18613525 -17.5065918 254.58711426 -16.82177734 255.00024414 C-14.86652802 256.14403674 -14.86652802 256.14403674 -12 257 C-11.4225 257.33 -10.845 257.66 -10.25 258 C-7.23621137 259.33946161 -4.25565187 259.57600813 -1 260 C-1.00056958 259.17851537 -1.00056958 259.17851537 -1.00115067 258.34043509 C-1.02350601 225.91557713 -1.04067504 193.49072121 -1.05106533 161.06585732 C-1.05231611 157.17663599 -1.05361042 153.28741467 -1.05493164 149.39819336 C-1.05519395 148.62388644 -1.05545626 147.84957953 -1.05572652 147.05180877 C-1.06008339 134.4977208 -1.06797102 121.94363739 -1.0771528 109.38955212 C-1.08648888 96.51757633 -1.09205551 83.64560293 -1.09408849 70.77362388 C-1.09546382 62.82447607 -1.09981491 54.87534113 -1.10791647 46.92619728 C-1.11380403 40.84115603 -1.11445908 34.75612597 -1.11310768 28.67108154 C-1.11338421 26.16719928 -1.11539201 23.66331656 -1.11920547 21.15943718 C-1.12413565 17.7572384 -1.1230008 14.35509603 -1.12025452 10.95289612 C-1.12316736 9.94805335 -1.1260802 8.94321058 -1.12908131 7.90791804 C-1.12709026 7.00372753 -1.12509921 6.09953703 -1.12304783 5.16794682 C-1.12361741 3.98834561 -1.12361741 3.98834561 -1.1241985 2.78491408 C-1 1 -1 1 0 0 Z " fill="#F43E4A" transform="translate(322,261)"/>
<path d="M0 0 C3.45405839 1.29751591 6.53113236 2.8044157 9.67578125 4.73046875 C11.02470459 5.55357544 11.02470459 5.55357544 12.40087891 6.39331055 C13.36171387 6.98539307 14.32254883 7.57747559 15.3125 8.1875 C16.31200684 8.79956299 17.31151367 9.41162598 18.34130859 10.04223633 C28.80128057 16.46155806 39.20418568 22.97291572 49.59423828 29.50463867 C51.30615251 30.56872175 53.04811088 31.58510867 54.80810547 32.56762695 C55.53143066 33.04031006 56.25475586 33.51299316 57 34 C57 34.66 57 35.32 57 36 C53.68024679 34.74249015 50.66897505 33.3261006 47.62890625 31.49609375 C46.81341309 31.00657227 45.99791992 30.51705078 45.15771484 30.01269531 C43.8730835 29.23297363 43.8730835 29.23297363 42.5625 28.4375 C41.68029785 27.90608398 40.7980957 27.37466797 39.88916016 26.82714844 C33.35151007 22.87061815 26.92176585 18.77161875 20.5546875 14.546875 C18.21261571 12.82734873 18.21261571 12.82734873 16 13 C15.60167969 12.58878906 15.20335937 12.17757813 14.79296875 11.75390625 C11.80923252 8.83517517 8.0690243 6.9548281 4.47460938 4.87304688 C2.95136782 3.96664104 1.4712665 2.98853997 0 2 C0 1.34 0 0.68 0 0 Z " fill="#F28910" transform="translate(19,340)"/>
<path d="M0 0 C2.66666667 2.66666667 5.33333333 5.33333333 8 8 C7.34 8 6.68 8 6 8 C6 8.99 6 9.98 6 11 C6.99 11.66 7.98 12.32 9 13 C5.535 14.485 5.535 14.485 2 16 C0.5563532 13.1127064 0.4321732 10.18727731 0 7 C-0.20625 6.071875 -0.4125 5.14375 -0.625 4.1875 C-1 2 -1 2 0 0 Z " fill="#F70C9F" transform="translate(590,346)"/>
<path d="M0 0 C2.0625 0.4375 2.0625 0.4375 4 1 C4 3.33333333 4 5.66666667 4 8 C4.515625 8.495 5.03125 8.99 5.5625 9.5 C6.036875 9.995 6.51125 10.49 7 11 C6.875 13.125 6.875 13.125 6 15 C5.01 15.33 4.02 15.66 3 16 C2.01 15.34 1.02 14.68 0 14 C-0.08967728 11.66839059 -0.0777346 9.33203812 0 7 C-0.185625 5.88625 -0.37125 4.7725 -0.5625 3.625 C-0.706875 2.75875 -0.85125 1.8925 -1 1 C-0.67 0.67 -0.34 0.34 0 0 Z " fill="#F11951" transform="translate(366,245)"/>
<path d="M0 0 C1.5 1.25 1.5 1.25 3 3 C3 4.32 3 5.64 3 7 C3.350625 7.99 3.70125 8.98 4.0625 10 C4.99779405 12.99294096 5.09863716 14.14354338 4 17 C4.66 17.33 5.32 17.66 6 18 C6 18.66 6 19.32 6 20 C5.01 20.33 4.02 20.66 3 21 C0.91062464 15.95067621 -0.12496007 12.49824293 0 7 C-0.89831016 4.69769234 -0.89831016 4.69769234 -2 3 C-1.34 2.01 -0.68 1.02 0 0 Z " fill="#F907B5" transform="translate(591,146)"/>
<path d="M0 0 C4.97357688 1.7342733 9.31498953 4.43327957 13.8125 7.125 C14.60076172 7.59292969 15.38902344 8.06085937 16.20117188 8.54296875 C18.13602454 9.69215397 20.06887228 10.84457003 22 12 C21.34 12.66 20.68 13.32 20 14 C16.37 12.02 12.74 10.04 9 8 C9 7.34 9 6.68 9 6 C7.88625 5.690625 6.7725 5.38125 5.625 5.0625 C2 4 2 4 0 3 C0 2.01 0 1.02 0 0 Z " fill="#DD573E" transform="translate(285,505)"/>
<path d="M0 0 C3.90625 2.6640625 3.90625 2.6640625 4.75 5.6875 C4.8325 6.450625 4.915 7.21375 5 8 C4.01 8.33 3.02 8.66 2 9 C2.495 9.94875 2.99 10.8975 3.5 11.875 C5 15 5 15 5 17 C1.125 15.25 1.125 15.25 0 13 C-0.07092842 10.7927077 -0.08415025 8.58332548 -0.0625 6.375 C-0.05347656 5.18648438 -0.04445313 3.99796875 -0.03515625 2.7734375 C-0.02355469 1.85820312 -0.01195312 0.94296875 0 0 Z " fill="#F11951" transform="translate(374,297)"/>
<path d="M0 0 C2.02178685 0.59734611 4.01985568 1.27648573 6 2 C8.32694964 2.37531446 10.65976685 2.71917202 13 3 C12.67 3.99 12.34 4.98 12 6 C6.33895411 5.50341703 2.12325529 4.45489316 -3 2 C-2.01 1.34 -1.02 0.68 0 0 Z " fill="#F64E4F" transform="translate(308,518)"/>
<path d="M0 0 C0.66 0.33 1.32 0.66 2 1 C1.814375 1.556875 1.62875 2.11375 1.4375 2.6875 C0.91993794 5.42318519 1.39247745 7.29989976 2 10 C2 11.32 2 12.64 2 14 C0.68 13.34 -0.64 12.68 -2 12 C-2.05422947 10.5629191 -2.09289723 9.12524538 -2.125 7.6875 C-2.14820313 6.88699219 -2.17140625 6.08648437 -2.1953125 5.26171875 C-2 3 -2 3 0 0 Z " fill="#F01848" transform="translate(348,353)"/>
<path d="M0 0 C3.624581 1.20819367 3.40170957 1.80341913 5 5 C6.64363134 5.72159424 8.31050386 6.39351421 10 7 C8.75 8.5625 8.75 8.5625 7 10 C5 9.875 5 9.875 3 9 C1.953125 6.93359375 1.953125 6.93359375 1.25 4.4375 C1.00765625 3.61121094 0.7653125 2.78492188 0.515625 1.93359375 C0.34546875 1.29550781 0.1753125 0.65742188 0 0 Z " fill="#F70A9E" transform="translate(584,325)"/>
<path d="M0 0 C3.65573061 1.37007562 6.95467647 3.01017865 10.3125 5 C11.19550781 5.515625 12.07851562 6.03125 12.98828125 6.5625 C13.65214844 7.036875 14.31601563 7.51125 15 8 C15 8.66 15 9.32 15 10 C11.34426939 8.62992438 8.04532353 6.98982135 4.6875 5 C3.80449219 4.484375 2.92148437 3.96875 2.01171875 3.4375 C1.34785156 2.963125 0.68398438 2.48875 0 2 C0 1.34 0 0.68 0 0 Z " fill="#F78C0C" transform="translate(61,366)"/>
<path d="M0 0 C1.875 0.1875 1.875 0.1875 4 1 C5.48261414 3.88719595 6.29772585 6.83976631 7 10 C6.01 10.495 6.01 10.495 5 11 C3.01388388 9.01388388 2.08545288 7.55856751 1 5 C1 4.01 1 3.02 1 2 C0.67 1.34 0.34 0.68 0 0 Z " fill="#F70A9E" transform="translate(586,335)"/>
<path d="M0 0 C0.66 0.33 1.32 0.66 2 1 C0.625 3.5 0.625 3.5 -1 6 C-1.66 6 -2.32 6 -3 6 C-3.33 6.66 -3.66 7.32 -4 8 C-4.66 6.02 -5.32 4.04 -6 2 C-5.38125 1.855625 -4.7625 1.71125 -4.125 1.5625 C-1.96741678 1.06847775 -1.96741678 1.06847775 0 0 Z " fill="#F11A51" transform="translate(371,271)"/>
<path d="M0 0 C0.99 0.33 1.98 0.66 3 1 C3.87867729 4.73437848 4.08912219 8.16774573 4 12 C1.0829234 9.59024107 0.45377501 7.72095505 0 4 C0 2.68 0 1.36 0 0 Z " fill="#F907B5" transform="translate(585,123)"/>
<path d="M0 0 C0.99 0.495 0.99 0.495 2 1 C3.1577506 4.47325181 3.06866652 7.36067448 3 11 C2.01 11.495 2.01 11.495 1 12 C0.22596442 7.93631321 -0.0984702 4.13574827 0 0 Z " fill="#F21462" transform="translate(448,388)"/>
<path d="M0 0 C2.64 1.65 5.28 3.3 8 5 C5 7 5 7 2 7 C1.34 4.69 0.68 2.38 0 0 Z " fill="#EF7B13" transform="translate(226,49)"/>
<path d="M0 0 C2.9719385 1.12451727 5.33440687 2.22293791 8 4 C7.67 4.66 7.34 5.32 7 6 C4.69 5.01 2.38 4.02 0 3 C0 2.01 0 1.02 0 0 Z " fill="#CB573F" transform="translate(285,505)"/>
<path d="M0 0 C0 0.66 0 1.32 0 2 C0.66 2.66 1.32 3.32 2 4 C-4.52307692 3.38461538 -4.52307692 3.38461538 -6.9375 1.4375 C-7.288125 0.963125 -7.63875 0.48875 -8 0 C-4.71023192 -1.09658936 -3.28696233 -0.79953138 0 0 Z " fill="#C8484F" transform="translate(313,519)"/>
<path d="M0 0 C1.32 0.33 2.64 0.66 4 1 C3.34 2.32 2.68 3.64 2 5 C1.34 5 0.68 5 0 5 C0 5.66 0 6.32 0 7 C-0.66 7 -1.32 7 -2 7 C-1.125 2.25 -1.125 2.25 0 0 Z " fill="#F11A51" transform="translate(370,285)"/>
<path d="M0 0 C1.5625 1.0625 1.5625 1.0625 3 3 C2.6875 6.6875 2.6875 6.6875 2 10 C1.01 9.67 0.02 9.34 -1 9 C-1.09765625 2.84765625 -1.09765625 2.84765625 -1 1 C-0.67 0.67 -0.34 0.34 0 0 Z " fill="#F37909" transform="translate(230,197)"/>
<path d="M0 0 C2.02045442 0.60183749 4.02111039 1.27306096 6 2 C6.33 2.66 6.66 3.32 7 4 C5.35 4.66 3.7 5.32 2 6 C0 3 0 3 0 0 Z " fill="#F00AD5" transform="translate(593,51)"/>
<path d="M0 0 C2.46278801 1.231394 3.42497687 2.78064923 5 5 C3.35 5.33 1.7 5.66 0 6 C-0.66 4.35 -1.32 2.7 -2 1 C-1.34 0.67 -0.68 0.34 0 0 Z " fill="#F11C52" transform="translate(363,239)"/>
<path d="M0 0 C2 2 2 2 2.125 5.625 C2.08375 6.73875 2.0425 7.8525 2 9 C1.01 8.67 0.02 8.34 -1 8 C-1.04241723 5.66705225 -1.04092937 3.33297433 -1 1 C-0.67 0.67 -0.34 0.34 0 0 Z " fill="#F37909" transform="translate(230,175)"/>
<path d="M0 0 C0.99 0.33 1.98 0.66 3 1 C3.6875 3.0625 3.6875 3.0625 4 5 C3.01 5.33 2.02 5.66 1 6 C0.34 4.35 -0.32 2.7 -1 1 C-0.67 0.67 -0.34 0.34 0 0 Z " fill="#F907B5" transform="translate(589,140)"/>
<path d="" fill="#5A1E7D" transform="translate(0,0)"/>
<path d="" fill="#5A1E7D" transform="translate(0,0)"/>
<path d="" fill="#5A1E7D" transform="translate(0,0)"/>
<path d="" fill="#5A1E7D" transform="translate(0,0)"/>
<path d="" fill="#5A1E7D" transform="translate(0,0)"/>
<path d="" fill="#5A1E7D" transform="translate(0,0)"/>
<path d="" fill="#5A1E7D" transform="translate(0,0)"/>
<path d="" fill="#5A1E7D" transform="translate(0,0)"/>
<path d="" fill="#5A1E7D" transform="translate(0,0)"/>
</svg>
