<svg xmlns="http://www.w3.org/2000/svg" xmlns:xlink="http://www.w3.org/1999/xlink" width="500" zoomAndPan="magnify" viewBox="0 0 375 374.999991" height="500" preserveAspectRatio="xMidYMid meet" version="1.0"><defs><clipPath id="f37e583315"><path d="M 100.417969 100.527344 L 274.417969 100.527344 L 274.417969 274.527344 L 100.417969 274.527344 Z M 100.417969 100.527344 " clip-rule="nonzero"/></clipPath></defs><g clip-path="url(#f37e583315)"><path fill="#000000" d="M 187.613281 187.496094 L 187.613281 247.277344 C 187.535156 247.277344 187.457031 247.28125 187.375 247.28125 C 154.410156 247.28125 127.59375 220.460938 127.59375 187.496094 C 127.59375 154.53125 154.410156 127.710938 187.375 127.710938 C 220.34375 127.710938 247.160156 154.53125 247.160156 187.496094 C 247.160156 198.207031 244.324219 208.269531 239.371094 216.972656 L 259.09375 236.691406 C 262.394531 231.890625 265.207031 226.765625 267.496094 221.351562 C 272.035156 210.621094 274.335938 199.230469 274.335938 187.496094 C 274.335938 175.761719 272.035156 164.375 267.496094 153.644531 C 263.117188 143.289062 256.847656 133.988281 248.867188 126.007812 C 240.882812 118.027344 231.585938 111.757812 221.230469 107.378906 C 210.5 102.839844 199.109375 100.539062 187.375 100.539062 C 175.644531 100.539062 164.253906 102.839844 153.523438 107.378906 C 143.167969 111.757812 133.867188 118.027344 125.886719 126.007812 C 117.90625 133.988281 111.636719 143.289062 107.257812 153.644531 C 102.71875 164.375 100.417969 175.761719 100.417969 187.496094 C 100.417969 199.230469 102.71875 210.621094 107.257812 221.351562 C 111.636719 231.707031 117.90625 241.003906 125.886719 248.988281 C 133.867188 256.96875 143.167969 263.238281 153.523438 267.617188 C 164.253906 272.15625 175.644531 274.457031 187.375 274.457031 C 196.789062 274.457031 205.980469 272.972656 214.789062 270.042969 L 214.789062 253.101562 L 236.144531 274.457031 L 274.574219 274.457031 L 187.613281 187.496094 " fill-opacity="1" fill-rule="nonzero"/></g></svg>